  0
SECTION
  2
HEADER
  9
$ACADVER
  1
AC1032
  9
$ACADMAINTVER
 90
4
  9
$DWGCODEPAGE
  3
ANSI_1252
  9
$LASTSAVEDBY
  1
ezdxf
  9
$REQUIREDVERSIONS
160
0
  9
$INSBASE
 10
0.0
 20
0.0
 30
0.0
  9
$EXTMIN
 10
1e+20
 20
1e+20
 30
1e+20
  9
$EXTMAX
 10
-1e+20
 20
-1e+20
 30
-1e+20
  9
$LIMMIN
 10
0.0
 20
0.0
  9
$LIMMAX
 10
420.0
 20
297.0
  9
$ORTHOMODE
 70
0
  9
$REGENMODE
 70
1
  9
$FILLMODE
 70
1
  9
$QTEXTMODE
 70
0
  9
$MIRRTEXT
 70
1
  9
$LTSCALE
 40
50.0
  9
$ATTMODE
 70
1
  9
$TEXTSIZE
 40
2.5
  9
$TRACEWID
 40
1.0
  9
$TEXTSTYLE
  7
Standard
  9
$CLAYER
  8
0
  9
$CELTYPE
  6
ByLayer
  9
$CECOLOR
 62
256
  9
$CELTSCALE
 40
1.0
  9
$DISPSILH
 70
0
  9
$DIMSCALE
 40
1.0
  9
$DIMASZ
 40
2.5
  9
$DIMEXO
 40
0.625
  9
$DIMDLI
 40
3.75
  9
$DIMRND
 40
0.0
  9
$DIMDLE
 40
0.0
  9
$DIMEXE
 40
1.25
  9
$DIMTP
 40
0.0
  9
$DIMTM
 40
0.0
  9
$DIMTXT
 40
2.5
  9
$DIMCEN
 40
2.5
  9
$DIMTSZ
 40
0.0
  9
$DIMTOL
 70
0
  9
$DIMLIM
 70
0
  9
$DIMTIH
 70
0
  9
$DIMTOH
 70
0
  9
$DIMSE1
 70
0
  9
$DIMSE2
 70
0
  9
$DIMTAD
 70
1
  9
$DIMZIN
 70
8
  9
$DIMBLK
  1

  9
$DIMASO
 70
1
  9
$DIMSHO
 70
1
  9
$DIMPOST
  1

  9
$DIMAPOST
  1

  9
$DIMALT
 70
0
  9
$DIMALTD
 70
3
  9
$DIMALTF
 40
0.03937007874
  9
$DIMLFAC
 40
1.0
  9
$DIMTOFL
 70
1
  9
$DIMTVP
 40
0.0
  9
$DIMTIX
 70
0
  9
$DIMSOXD
 70
0
  9
$DIMSAH
 70
0
  9
$DIMBLK1
  1

  9
$DIMBLK2
  1

  9
$DIMSTYLE
  2
ISO-25
  9
$DIMCLRD
 70
0
  9
$DIMCLRE
 70
0
  9
$DIMCLRT
 70
0
  9
$DIMTFAC
 40
1.0
  9
$DIMGAP
 40
0.625
  9
$DIMJUST
 70
0
  9
$DIMSD1
 70
0
  9
$DIMSD2
 70
0
  9
$DIMTOLJ
 70
0
  9
$DIMTZIN
 70
8
  9
$DIMALTZ
 70
0
  9
$DIMALTTZ
 70
0
  9
$DIMUPT
 70
0
  9
$DIMDEC
 70
2
  9
$DIMTDEC
 70
2
  9
$DIMALTU
 70
2
  9
$DIMALTTD
 70
3
  9
$DIMTXSTY
  7
Standard
  9
$DIMAUNIT
 70
0
  9
$DIMADEC
 70
0
  9
$DIMALTRND
 40
0.0
  9
$DIMAZIN
 70
0
  9
$DIMDSEP
 70
44
  9
$DIMATFIT
 70
3
  9
$DIMFRAC
 70
0
  9
$DIMLDRBLK
  1

  9
$DIMLUNIT
 70
2
  9
$DIMLWD
 70
-2
  9
$DIMLWE
 70
-2
  9
$DIMTMOVE
 70
0
  9
$DIMFXL
 40
1.0
  9
$DIMFXLON
 70
0
  9
$DIMJOGANG
 40
0.785398163397
  9
$DIMTFILL
 70
0
  9
$DIMTFILLCLR
 70
0
  9
$DIMARCSYM
 70
0
  9
$DIMLTYPE
  6

  9
$DIMLTEX1
  6

  9
$DIMLTEX2
  6

  9
$DIMTXTDIRECTION
 70
0
  9
$LUNITS
 70
2
  9
$LUPREC
 70
4
  9
$SKETCHINC
 40
1.0
  9
$FILLETRAD
 40
10.0
  9
$AUNITS
 70
0
  9
$AUPREC
 70
2
  9
$MENU
  1
.
  9
$ELEVATION
 40
0.0
  9
$PELEVATION
 40
0.0
  9
$THICKNESS
 40
0.0
  9
$LIMCHECK
 70
0
  9
$CHAMFERA
 40
0.0
  9
$CHAMFERB
 40
0.0
  9
$CHAMFERC
 40
0.0
  9
$CHAMFERD
 40
0.0
  9
$SKPOLY
 70
0
  9
$TDCREATE
 40
2459632.5530208335
  9
$TDUCREATE
 40
2458532.153996898
  9
$TDUPDATE
 40
2459632.5530208335
  9
$TDUUPDATE
 40
2458532.1544311
  9
$TDINDWG
 40
0.0
  9
$TDUSRTIMER
 40
0.0
  9
$USRTIMER
 70
1
  9
$ANGBASE
 50
0.0
  9
$ANGDIR
 70
0
  9
$PDMODE
 70
0
  9
$PDSIZE
 40
0.0
  9
$PLINEWID
 40
0.0
  9
$SPLFRAME
 70
0
  9
$SPLINETYPE
 70
6
  9
$SPLINESEGS
 70
8
  9
$HANDSEED
  5
14B
  9
$SURFTAB1
 70
6
  9
$SURFTAB2
 70
6
  9
$SURFTYPE
 70
6
  9
$SURFU
 70
6
  9
$SURFV
 70
6
  9
$UCSBASE
  2

  9
$UCSNAME
  2

  9
$UCSORG
 10
0.0
 20
0.0
 30
0.0
  9
$UCSXDIR
 10
1.0
 20
0.0
 30
0.0
  9
$UCSYDIR
 10
0.0
 20
1.0
 30
0.0
  9
$UCSORTHOREF
  2

  9
$UCSORTHOVIEW
 70
0
  9
$UCSORGTOP
 10
0.0
 20
0.0
 30
0.0
  9
$UCSORGBOTTOM
 10
0.0
 20
0.0
 30
0.0
  9
$UCSORGLEFT
 10
0.0
 20
0.0
 30
0.0
  9
$UCSORGRIGHT
 10
0.0
 20
0.0
 30
0.0
  9
$UCSORGFRONT
 10
0.0
 20
0.0
 30
0.0
  9
$UCSORGBACK
 10
0.0
 20
0.0
 30
0.0
  9
$PUCSBASE
  2

  9
$PUCSNAME
  2

  9
$PUCSORG
 10
0.0
 20
0.0
 30
0.0
  9
$PUCSXDIR
 10
1.0
 20
0.0
 30
0.0
  9
$PUCSYDIR
 10
0.0
 20
1.0
 30
0.0
  9
$PUCSORTHOREF
  2

  9
$PUCSORTHOVIEW
 70
0
  9
$PUCSORGTOP
 10
0.0
 20
0.0
 30
0.0
  9
$PUCSORGBOTTOM
 10
0.0
 20
0.0
 30
0.0
  9
$PUCSORGLEFT
 10
0.0
 20
0.0
 30
0.0
  9
$PUCSORGRIGHT
 10
0.0
 20
0.0
 30
0.0
  9
$PUCSORGFRONT
 10
0.0
 20
0.0
 30
0.0
  9
$PUCSORGBACK
 10
0.0
 20
0.0
 30
0.0
  9
$USERI1
 70
0
  9
$USERI2
 70
0
  9
$USERI3
 70
0
  9
$USERI4
 70
0
  9
$USERI5
 70
0
  9
$USERR1
 40
0.0
  9
$USERR2
 40
0.0
  9
$USERR3
 40
0.0
  9
$USERR4
 40
0.0
  9
$USERR5
 40
0.0
  9
$WORLDVIEW
 70
1
  9
$SHADEDGE
 70
3
  9
$SHADEDIF
 70
70
  9
$TILEMODE
 70
1
  9
$MAXACTVP
 70
64
  9
$PINSBASE
 10
0.0
 20
0.0
 30
0.0
  9
$PLIMCHECK
 70
0
  9
$PEXTMIN
 10
1e+20
 20
1e+20
 30
1e+20
  9
$PEXTMAX
 10
-1e+20
 20
-1e+20
 30
-1e+20
  9
$PLIMMIN
 10
0.0
 20
0.0
  9
$PLIMMAX
 10
420.0
 20
297.0
  9
$UNITMODE
 70
0
  9
$VISRETAIN
 70
1
  9
$PLINEGEN
 70
0
  9
$PSLTSCALE
 70
1
  9
$TREEDEPTH
 70
3020
  9
$CMLSTYLE
  2
Standard
  9
$CMLJUST
 70
0
  9
$CMLSCALE
 40
20.0
  9
$PROXYGRAPHICS
 70
1
  9
$MEASUREMENT
 70
1
  9
$CELWEIGHT
370
-1
  9
$ENDCAPS
280
0
  9
$JOINSTYLE
280
0
  9
$LWDISPLAY
290
0
  9
$INSUNITS
 70
4
  9
$HYPERLINKBASE
  1

  9
$STYLESHEET
  1

  9
$XEDIT
290
1
  9
$CEPSNTYPE
380
0
  9
$PSTYLEMODE
290
1
  9
$FINGERPRINTGUID
  2
{38018ACF-6113-4CE5-8BF1-63C664188077}
  9
$VERSIONGUID
  2
{3384FB7B-AEA2-43D4-BCAA-25C1B003E5B1}
  9
$EXTNAMES
290
1
  9
$PSVPSCALE
 40
0.0
  9
$OLESTARTUP
290
0
  9
$SORTENTS
280
127
  9
$INDEXCTL
280
0
  9
$HIDETEXT
280
1
  9
$XCLIPFRAME
280
0
  9
$HALOGAP
280
0
  9
$OBSCOLOR
 70
257
  9
$OBSLTYPE
280
0
  9
$INTERSECTIONDISPLAY
280
0
  9
$INTERSECTIONCOLOR
 70
257
  9
$DIMASSOC
280
2
  9
$PROJECTNAME
  1

  9
$CAMERADISPLAY
290
0
  9
$LENSLENGTH
 40
50.0
  9
$CAMERAHEIGHT
 40
0.0
  9
$STEPSPERSEC
 40
24.0
  9
$STEPSIZE
 40
100.0
  9
$3DDWFPREC
 40
2.0
  9
$PSOLWIDTH
 40
0.005
  9
$PSOLHEIGHT
 40
0.08
  9
$LOFTANG1
 40
1.570796326795
  9
$LOFTANG2
 40
1.570796326795
  9
$LOFTMAG1
 40
0.0
  9
$LOFTMAG2
 40
0.0
  9
$LOFTPARAM
 70
7
  9
$LOFTNORMALS
280
1
  9
$LATITUDE
 40
37.795
  9
$LONGITUDE
 40
-122.394
  9
$NORTHDIRECTION
 40
0.0
  9
$TIMEZONE
 70
-8000
  9
$LIGHTGLYPHDISPLAY
280
1
  9
$TILEMODELIGHTSYNCH
280
1
  9
$CMATERIAL
347
20
  9
$SOLIDHIST
280
0
  9
$SHOWHIST
280
1
  9
$DWFFRAME
280
2
  9
$DGNFRAME
280
2
  9
$REALWORLDSCALE
290
1
  9
$INTERFERECOLOR
 62
256
  9
$CSHADOW
280
0
  9
$SHADOWPLANELOCATION
 40
0.0
  0
ENDSEC
  0
SECTION
  2
CLASSES
  0
CLASS
  1
ACDBDICTIONARYWDFLT
  2
AcDbDictionaryWithDefault
  3
ObjectDBX Classes
 90
0
 91
0
280
0
281
0
  0
CLASS
  1
SUN
  2
AcDbSun
  3
SCENEOE
 90
1153
 91
0
280
0
281
0
  0
CLASS
  1
VISUALSTYLE
  2
AcDbVisualStyle
  3
ObjectDBX Classes
 90
4095
 91
0
280
0
281
0
  0
CLASS
  1
MATERIAL
  2
AcDbMaterial
  3
ObjectDBX Classes
 90
1153
 91
0
280
0
281
0
  0
CLASS
  1
SCALE
  2
AcDbScale
  3
ObjectDBX Classes
 90
1153
 91
0
280
0
281
0
  0
CLASS
  1
TABLESTYLE
  2
AcDbTableStyle
  3
ObjectDBX Classes
 90
4095
 91
0
280
0
281
0
  0
CLASS
  1
MLEADERSTYLE
  2
AcDbMLeaderStyle
  3
ACDB_MLEADERSTYLE_CLASS
 90
4095
 91
0
280
0
281
0
  0
CLASS
  1
DICTIONARYVAR
  2
AcDbDictionaryVar
  3
ObjectDBX Classes
 90
0
 91
0
280
0
281
0
  0
CLASS
  1
CELLSTYLEMAP
  2
AcDbCellStyleMap
  3
ObjectDBX Classes
 90
1152
 91
0
280
0
281
0
  0
CLASS
  1
MENTALRAYRENDERSETTINGS
  2
AcDbMentalRayRenderSettings
  3
SCENEOE
 90
1024
 91
0
280
0
281
0
  0
CLASS
  1
ACDBDETAILVIEWSTYLE
  2
AcDbDetailViewStyle
  3
ObjectDBX Classes
 90
1025
 91
0
280
0
281
0
  0
CLASS
  1
ACDBSECTIONVIEWSTYLE
  2
AcDbSectionViewStyle
  3
ObjectDBX Classes
 90
1025
 91
0
280
0
281
0
  0
CLASS
  1
RASTERVARIABLES
  2
AcDbRasterVariables
  3
ISM
 90
0
 91
0
280
0
281
0
  0
CLASS
  1
ACDBPLACEHOLDER
  2
AcDbPlaceHolder
  3
ObjectDBX Classes
 90
0
 91
0
280
0
281
0
  0
CLASS
  1
LAYOUT
  2
AcDbLayout
  3
ObjectDBX Classes
 90
0
 91
0
280
0
281
0
  0
ENDSEC
  0
SECTION
  2
TABLES
  0
TABLE
  2
VPORT
  5
8
330
0
100
AcDbSymbolTable
 70
1
  0
VPORT
  5
23
330
8
100
AcDbSymbolTableRecord
100
AcDbViewportTableRecord
  2
*Active
 70
0
 10
0.0
 20
0.0
 11
1.0
 21
1.0
 12
0.0
 22
0.0
 13
0.0
 23
0.0
 14
0.5
 24
0.5
 15
0.5
 25
0.5
 16
0.0
 26
0.0
 36
1.0
 17
0.0
 27
0.0
 37
0.0
 40
1000.0
 41
1.34
 42
50.0
 43
0.0
 44
0.0
 50
0.0
 51
0.0
 71
0
 72
1000
 73
1
 74
3
 75
0
 76
0
 77
0
 78
0
281
0
 65
0
146
0.0
  0
ENDTAB
  0
TABLE
  2
LTYPE
  5
2
330
0
100
AcDbSymbolTable
 70
21
  0
LTYPE
  5
24
330
2
100
AcDbSymbolTableRecord
100
AcDbLinetypeTableRecord
  2
ByBlock
 70
0
  3

 72
65
 73
0
 40
0.0
  0
LTYPE
  5
25
330
2
100
AcDbSymbolTableRecord
100
AcDbLinetypeTableRecord
  2
ByLayer
 70
0
  3

 72
65
 73
0
 40
0.0
  0
LTYPE
  5
26
330
2
100
AcDbSymbolTableRecord
100
AcDbLinetypeTableRecord
  2
Continuous
 70
0
  3

 72
65
 73
0
 40
0.0
  0
LTYPE
  5
2F
330
2
100
AcDbSymbolTableRecord
100
AcDbLinetypeTableRecord
  2
CENTER
 70
0
  3
Center ____ _ ____ _ ____ _ ____ _ ____ _ ____
 72
65
 73
4
 40
5.08
 49
3.175
 74
0
 49
-0.635
 74
0
 49
0.635
 74
0
 49
-0.635
 74
0
  0
LTYPE
  5
30
330
2
100
AcDbSymbolTableRecord
100
AcDbLinetypeTableRecord
  2
CENTERX2
 70
0
  3
Center (2x) ________  __  ________  __  ________
 72
65
 73
4
 40
8.89
 49
6.35
 74
0
 49
-0.635
 74
0
 49
1.27
 74
0
 49
-0.635
 74
0
  0
LTYPE
  5
31
330
2
100
AcDbSymbolTableRecord
100
AcDbLinetypeTableRecord
  2
CENTER2
 70
0
  3
Center (.5x) ____ _ ____ _ ____ _ ____ _ ____
 72
65
 73
4
 40
2.54
 49
1.587
 74
0
 49
-0.318
 74
0
 49
0.318
 74
0
 49
-0.318
 74
0
  0
LTYPE
  5
32
330
2
100
AcDbSymbolTableRecord
100
AcDbLinetypeTableRecord
  2
DASHED
 70
0
  3
Dashed __ __ __ __ __ __ __ __ __ __ __ __ __ _
 72
65
 73
2
 40
1.524
 49
1.27
 74
0
 49
-0.254
 74
0
  0
LTYPE
  5
33
330
2
100
AcDbSymbolTableRecord
100
AcDbLinetypeTableRecord
  2
DASHEDX2
 70
0
  3
Dashed (2x) ____  ____  ____  ____  ____  ____
 72
65
 73
2
 40
3.048
 49
2.54
 74
0
 49
-0.508
 74
0
  0
LTYPE
  5
34
330
2
100
AcDbSymbolTableRecord
100
AcDbLinetypeTableRecord
  2
DASHED2
 70
0
  3
Dashed (.5x) _ _ _ _ _ _ _ _ _ _ _ _ _ _
 72
65
 73
2
 40
0.762
 49
0.635
 74
0
 49
-0.127
 74
0
  0
LTYPE
  5
35
330
2
100
AcDbSymbolTableRecord
100
AcDbLinetypeTableRecord
  2
PHANTOM
 70
0
  3
Phantom ______  __  __  ______  __  __  ______
 72
65
 73
6
 40
6.35
 49
3.175
 74
0
 49
-0.635
 74
0
 49
0.635
 74
0
 49
-0.635
 74
0
 49
0.635
 74
0
 49
-0.635
 74
0
  0
LTYPE
  5
36
330
2
100
AcDbSymbolTableRecord
100
AcDbLinetypeTableRecord
  2
PHANTOMX2
 70
0
  3
Phantom (2x)____________    ____    ____    ____________
 72
65
 73
6
 40
10.795
 49
6.35
 74
0
 49
-0.635
 74
0
 49
1.27
 74
0
 49
-0.635
 74
0
 49
1.27
 74
0
 49
-0.635
 74
0
  0
LTYPE
  5
37
330
2
100
AcDbSymbolTableRecord
100
AcDbLinetypeTableRecord
  2
PHANTOM2
 70
0
  3
Phantom (.5x) ___ _ _ ___ _ _ ___ _ _ ___ _ _ ___
 72
65
 73
6
 40
3.175
 49
1.587
 74
0
 49
-0.318
 74
0
 49
0.318
 74
0
 49
-0.318
 74
0
 49
0.318
 74
0
 49
-0.318
 74
0
  0
LTYPE
  5
38
330
2
100
AcDbSymbolTableRecord
100
AcDbLinetypeTableRecord
  2
DASHDOT
 70
0
  3
Dash dot __ . __ . __ . __ . __ . __ . __ . __
 72
65
 73
4
 40
3.556
 49
2.54
 74
0
 49
-0.508
 74
0
 49
0.0
 74
0
 49
-0.508
 74
0
  0
LTYPE
  5
39
330
2
100
AcDbSymbolTableRecord
100
AcDbLinetypeTableRecord
  2
DASHDOTX2
 70
0
  3
Dash dot (2x) ____  .  ____  .  ____  .  ____
 72
65
 73
4
 40
6.096
 49
5.08
 74
0
 49
-0.508
 74
0
 49
0.0
 74
0
 49
-0.508
 74
0
  0
LTYPE
  5
3A
330
2
100
AcDbSymbolTableRecord
100
AcDbLinetypeTableRecord
  2
DASHDOT2
 70
0
  3
Dash dot (.5x) _ . _ . _ . _ . _ . _ . _ . _
 72
65
 73
4
 40
1.778
 49
1.27
 74
0
 49
-0.254
 74
0
 49
0.0
 74
0
 49
-0.254
 74
0
  0
LTYPE
  5
3B
330
2
100
AcDbSymbolTableRecord
100
AcDbLinetypeTableRecord
  2
DOT
 70
0
  3
Dot .  .  .  .  .  .  .  .  .  .  .  .  .  .  .  .
 72
65
 73
2
 40
0.508
 49
0.0
 74
0
 49
-0.508
 74
0
  0
LTYPE
  5
3C
330
2
100
AcDbSymbolTableRecord
100
AcDbLinetypeTableRecord
  2
DOTX2
 70
0
  3
Dot (2x) .    .    .    .    .    .    .    . 
 72
65
 73
2
 40
1.016
 49
0.0
 74
0
 49
-1.016
 74
0
  0
LTYPE
  5
3D
330
2
100
AcDbSymbolTableRecord
100
AcDbLinetypeTableRecord
  2
DOT2
 70
0
  3
Dot (.5) . . . . . . . . . . . . . . . . . . . 
 72
65
 73
2
 40
0.254
 49
0.0
 74
0
 49
-0.254
 74
0
  0
LTYPE
  5
3E
330
2
100
AcDbSymbolTableRecord
100
AcDbLinetypeTableRecord
  2
DIVIDE
 70
0
  3
Divide __ . . __ . . __ . . __ . . __ . . __
 72
65
 73
6
 40
4.064
 49
2.54
 74
0
 49
-0.508
 74
0
 49
0.0
 74
0
 49
-0.508
 74
0
 49
0.0
 74
0
 49
-0.508
 74
0
  0
LTYPE
  5
3F
330
2
100
AcDbSymbolTableRecord
100
AcDbLinetypeTableRecord
  2
DIVIDEX2
 70
0
  3
Divide (2x) ____  . .  ____  . .  ____  . .  ____
 72
65
 73
6
 40
6.604
 49
5.08
 74
0
 49
-0.508
 74
0
 49
0.0
 74
0
 49
-0.508
 74
0
 49
0.0
 74
0
 49
-0.508
 74
0
  0
LTYPE
  5
40
330
2
100
AcDbSymbolTableRecord
100
AcDbLinetypeTableRecord
  2
DIVIDE2
 70
0
  3
Divide(.5x) _ . _ . _ . _ . _ . _ . _ . _
 72
65
 73
6
 40
2.032
 49
1.27
 74
0
 49
-0.254
 74
0
 49
0.0
 74
0
 49
-0.254
 74
0
 49
0.0
 74
0
 49
-0.254
 74
0
  0
ENDTAB
  0
TABLE
  2
LAYER
  5
1
330
0
100
AcDbSymbolTable
 70
8
  0
LAYER
  5
27
330
1
100
AcDbSymbolTableRecord
100
AcDbLayerTableRecord
  2
0
 70
0
 62
7
  6
Continuous
370
-3
390
13
347
21
  0
LAYER
  5
28
330
1
100
AcDbSymbolTableRecord
100
AcDbLayerTableRecord
  2
Defpoints
 70
0
 62
7
  6
Continuous
290
0
370
-3
390
13
347
21
  0
LAYER
  5
41
330
1
100
AcDbSymbolTableRecord
100
AcDbLayerTableRecord
  2
KONEC-Obrys
 70
0
 62
3
  6
Continuous
370
-3
390
13
347
21
  0
LAYER
  5
42
330
1
100
AcDbSymbolTableRecord
100
AcDbLayerTableRecord
  2
KONEC-Prety
 70
0
 62
1
  6
Continuous
370
-3
390
13
347
21
  0
LAYER
  5
43
330
1
100
AcDbSymbolTableRecord
100
AcDbLayerTableRecord
  2
KONEC-Strzemiona
 70
0
 62
6
  6
Continuous
370
-3
390
13
347
21
  0
LAYER
  5
44
330
1
100
AcDbSymbolTableRecord
100
AcDbLayerTableRecord
  2
KONEC-Kreskowanie
 70
0
 62
7
  6
Continuous
370
-3
390
13
347
21
  0
LAYER
  5
45
330
1
100
AcDbSymbolTableRecord
100
AcDbLayerTableRecord
  2
KONEC-Wymiary
 70
0
 62
4
  6
Continuous
370
-3
390
13
347
21
  0
LAYER
  5
46
330
1
100
AcDbSymbolTableRecord
100
AcDbLayerTableRecord
  2
KONEC-Przerywana
 70
0
 62
8
  6
DASHED
370
-3
390
13
347
21
  0
ENDTAB
  0
TABLE
  2
STYLE
  5
5
330
0
100
AcDbSymbolTable
 70
2
  0
STYLE
  5
29
330
5
100
AcDbSymbolTableRecord
100
AcDbTextStyleTableRecord
  2
Standard
 70
0
 40
0.0
 41
1.0
 50
0.0
 71
0
 42
2.5
  3
txt
  4

  0
STYLE
  5
47
330
5
100
AcDbSymbolTableRecord
100
AcDbTextStyleTableRecord
  2
KONEC-Tekst
 70
0
 40
0.0
 41
1.0
 50
0.0
 71
0
 42
2.5
  3
Arial.ttf
  4

  0
ENDTAB
  0
TABLE
  2
VIEW
  5
7
330
0
100
AcDbSymbolTable
 70
0
  0
ENDTAB
  0
TABLE
  2
UCS
  5
6
330
0
100
AcDbSymbolTable
 70
0
  0
ENDTAB
  0
TABLE
  2
APPID
  5
3
330
0
100
AcDbSymbolTable
 70
3
  0
APPID
  5
2A
330
3
100
AcDbSymbolTableRecord
100
AcDbRegAppTableRecord
  2
ACAD
 70
0
  0
APPID
  5
148
330
3
100
AcDbSymbolTableRecord
100
AcDbRegAppTableRecord
  2
HATCHBACKGROUNDCOLOR
 70
0
  0
APPID
  5
149
330
3
100
AcDbSymbolTableRecord
100
AcDbRegAppTableRecord
  2
EZDXF
 70
0
  0
ENDTAB
  0
TABLE
  2
DIMSTYLE
  5
4
330
0
100
AcDbSymbolTable
 70
3
100
AcDbDimStyleTable
  0
DIMSTYLE
105
2B
330
4
100
AcDbSymbolTableRecord
100
AcDbDimStyleTableRecord
  2
Standard
 70
0
 40
1.0
 41
2.5
 42
0.625
 43
3.75
 44
1.25
 45
0.0
 46
0.0
 47
0.0
 48
0.0
 49
2.5
140
2.5
141
2.5
142
0.0
143
0.03937007874
144
1.0
145
0.0
146
1.0
147
0.625
148
0.0
 69
0
 70
0
 71
0
 72
0
 73
0
 74
0
 75
0
 76
0
 77
1
 78
8
 79
3
170
0
171
3
172
1
173
0
174
0
175
0
176
0
177
0
178
0
179
2
271
2
272
2
273
2
274
3
275
0
276
0
277
2
278
44
279
0
280
0
281
0
282
0
283
0
284
8
285
0
286
0
288
0
289
3
290
0
371
-2
372
-2
  0
DIMSTYLE
105
48
330
4
100
AcDbSymbolTableRecord
100
AcDbDimStyleTableRecord
  2
KONEC_1_20
 70
0
 40
20.0
 41
2.5
 42
0.625
 43
3.75
 44
1.25
 45
0.0
 46
0.0
 47
0.0
 48
0.0
 49
2.5
140
2.5
141
2.5
142
0.0
143
0.03937007874
144
1.0
145
0.0
146
1.0
147
0.625
148
0.0
 69
0
 70
0
 71
0
 72
0
 73
0
 74
0
 75
0
 76
0
 77
1
 78
8
 79
3
170
0
171
3
172
1
173
0
174
0
175
0
176
0
177
0
178
0
179
2
271
2
272
2
273
2
274
3
275
0
276
0
277
2
278
44
279
0
280
0
281
0
282
0
283
0
284
8
285
0
286
0
288
0
289
3
290
0
340
47
342
14B
371
-2
372
-2
  0
DIMSTYLE
105
49
330
4
100
AcDbSymbolTableRecord
100
AcDbDimStyleTableRecord
  2
KONEC_BAR_1_20
 70
0
 40
20.0
 41
2.5
 42
0.625
 43
3.75
 44
1.25
 45
0.0
 46
0.0
 47
0.0
 48
0.0
 49
2.5
140
2.5
141
2.5
142
0.0
143
0.03937007874
144
1.0
145
0.0
146
1.0
147
0.625
148
0.0
 69
0
 70
0
 71
0
 72
0
 73
0
 74
0
 75
1
 76
1
 77
1
 78
8
 79
3
170
0
171
3
172
1
173
0
174
0
175
0
176
0
177
0
178
0
179
2
271
2
272
2
273
2
274
3
275
0
276
0
277
2
278
44
279
0
280
0
281
1
282
1
283
0
284
8
285
0
286
0
288
0
289
3
290
0
340
47
342
14F
371
-2
372
-2
  0
ENDTAB
  0
TABLE
  2
BLOCK_RECORD
  5
9
330
0
100
AcDbSymbolTable
 70
9
  0
BLOCK_RECORD
  5
17
330
9
100
AcDbSymbolTableRecord
100
AcDbBlockTableRecord
  2
*Model_Space
340
1A
 70
0
280
1
281
0
  0
BLOCK_RECORD
  5
1B
330
9
100
AcDbSymbolTableRecord
100
AcDbBlockTableRecord
  2
*Paper_Space
340
1E
 70
0
280
1
281
0
  0
BLOCK_RECORD
  5
4A
330
9
100
AcDbSymbolTableRecord
100
AcDbBlockTableRecord
  2
reinforcement_description
340
0
 70
0
280
1
281
0
  0
BLOCK_RECORD
  5
65
330
9
100
AcDbSymbolTableRecord
100
AcDbBlockTableRecord
  2
*Paper_Space0
340
68
 70
0
280
1
281
0
  0
BLOCK_RECORD
  5
115
330
9
100
AcDbSymbolTableRecord
100
AcDbBlockTableRecord
  2
*U1
340
0
 70
0
280
1
281
0
  0
BLOCK_RECORD
  5
126
330
9
100
AcDbSymbolTableRecord
100
AcDbBlockTableRecord
  2
*U2
340
0
 70
0
280
1
281
0
  0
BLOCK_RECORD
  5
137
330
9
100
AcDbSymbolTableRecord
100
AcDbBlockTableRecord
  2
*U3
340
0
 70
0
280
1
281
0
  0
BLOCK_RECORD
  5
14B
330
9
100
AcDbSymbolTableRecord
100
AcDbBlockTableRecord
  2
_OBLIQUE
340
0
 70
0
280
1
281
0
  0
BLOCK_RECORD
  5
14F
330
9
100
AcDbSymbolTableRecord
100
AcDbBlockTableRecord
  2
_NONE
340
0
 70
0
280
1
281
0
  0
ENDTAB
  0
ENDSEC
  0
SECTION
  2
BLOCKS
  0
BLOCK
  5
18
330
17
100
AcDbEntity
  8
0
100
AcDbBlockBegin
  2
*Model_Space
 70
0
 10
0.0
 20
0.0
 30
0.0
  3
*Model_Space
  1

  0
ENDBLK
  5
19
330
17
100
AcDbEntity
  8
0
100
AcDbBlockEnd
  0
BLOCK
  5
1C
330
1B
100
AcDbEntity
  8
0
100
AcDbBlockBegin
  2
*Paper_Space
 70
0
 10
0.0
 20
0.0
 30
0.0
  3
*Paper_Space
  1

  0
ENDBLK
  5
1D
330
1B
100
AcDbEntity
  8
0
100
AcDbBlockEnd
  0
BLOCK
  5
4B
330
4A
100
AcDbEntity
  8
0
100
AcDbBlockBegin
  2
reinforcement_description
 70
2
 10
0.0
 20
0.0
 30
0.0
  3
reinforcement_description
  1

  0
CIRCLE
  5
4D
330
4A
100
AcDbEntity
  8
KONEC-Obrys
100
AcDbCircle
 10
-14.0
 20
5.0
 30
0.0
 40
4.0
  0
ATTDEF
  5
4E
330
4A
100
AcDbEntity
  8
KONEC-Obrys
100
AcDbText
 10
-14.0
 20
5.0
 30
0.0
 40
2.5
  1

  7
KONEC-Tekst
 72
1
 11
-14.0
 21
5.0
 31
0.0
100
AcDbAttributeDefinition
280
0
  3

  2
NUMBER
 70
0
 74
2
 71
1
 72
0
 11
-14.0
 21
5.0
 31
0.0
  0
ATTDEF
  5
4F
330
4A
100
AcDbEntity
  8
KONEC-Obrys
100
AcDbText
 10
-4.0
 20
5.0
 30
0.0
 40
2.5
  1

  7
KONEC-Tekst
 72
2
 11
-4.0
 21
5.0
 31
0.0
100
AcDbAttributeDefinition
280
0
  3

  2
QUANTITY
 70
0
 74
2
 71
1
 72
0
 11
-4.0
 21
5.0
 31
0.0
  0
TEXT
  5
50
330
4A
100
AcDbEntity
  8
KONEC-Obrys
100
AcDbText
 10
-2.5
 20
5.0
 30
0.0
 40
2.5
  1
%%c
  7
KONEC-Tekst
 72
1
 11
-2.5
 21
5.0
 31
0.0
100
AcDbText
 73
2
  0
ATTDEF
  5
51
330
4A
100
AcDbEntity
  8
KONEC-Obrys
100
AcDbText
 10
0.0
 20
5.0
 30
0.0
 40
2.5
  1

  7
KONEC-Tekst
 11
0.0
 21
5.0
 31
0.0
100
AcDbAttributeDefinition
280
0
  3

  2
DIAMETER
 70
0
 74
2
 71
1
 72
0
 11
0.0
 21
5.0
 31
0.0
  0
TEXT
  5
52
330
4A
100
AcDbEntity
  8
KONEC-Obrys
100
AcDbText
 10
5.0
 20
5.0
 30
0.0
 40
2.5
  1
L=
  7
KONEC-Tekst
 11
5.0
 21
5.0
 31
0.0
100
AcDbText
 73
2
  0
ATTDEF
  5
53
330
4A
100
AcDbEntity
  8
KONEC-Obrys
100
AcDbText
 10
9.0
 20
5.0
 30
0.0
 40
2.5
  1

  7
KONEC-Tekst
 11
9.0
 21
5.0
 31
0.0
100
AcDbAttributeDefinition
280
0
  3

  2
LENGTH
 70
0
 74
2
 71
1
 72
0
 11
9.0
 21
5.0
 31
0.0
  0
ENDBLK
  5
4C
330
4A
100
AcDbEntity
  8
0
100
AcDbBlockEnd
  0
BLOCK
  5
66
330
65
100
AcDbEntity
  8
0
100
AcDbBlockBegin
  2
*Paper_Space0
 70
0
 10
0.0
 20
0.0
 30
0.0
  3
*Paper_Space0
  1

  0
VIEWPORT
  5
69
330
65
100
AcDbEntity
 67
1
  8
VIEWPORTS
100
AcDbViewport
 10
4190.0
 20
2960.0
 30
0.0
 40
9240.0
 41
6534.000000000001
 68
1
 69
1
 12
4190.0
 22
2960.0
 13
0.0
 23
0.0
 14
10.0
 24
10.0
 15
10.0
 25
10.0
 16
0.0
 26
0.0
 36
0.0
 17
0.0
 27
0.0
 37
0.0
 42
50.0
 43
0.0
 44
0.0
 45
6534.000000000001
 50
0.0
 51
0.0
 72
100
 90
557088
  1

281
0
 71
0
 74
0
110
0.0
120
0.0
130
0.0
111
1.0
121
0.0
131
0.0
112
0.0
122
1.0
132
0.0
 79
0
146
0.0
282
0
  0
VIEWPORT
  5
6A
330
65
100
AcDbEntity
 67
1
  8
VIEWPORTS
100
AcDbViewport
 10
210.0
 20
148.5
 30
0.0
 40
8380.0
 41
5920.0
 68
1
 69
3
 12
420.0
 22
297.0
 13
0.0
 23
0.0
 14
10.0
 24
10.0
 15
10.0
 25
10.0
 16
0.0
 26
0.0
 36
0.0
 17
0.0
 27
0.0
 37
0.0
 42
50.0
 43
0.0
 44
0.0
 45
5920.0
 50
0.0
 51
0.0
 72
100
 90
0
  1

281
0
 71
0
 74
0
110
0.0
120
0.0
130
0.0
111
1.0
121
0.0
131
0.0
112
0.0
122
1.0
132
0.0
 79
0
146
0.0
282
0
  0
ENDBLK
  5
67
330
65
100
AcDbEntity
  8
0
100
AcDbBlockEnd
  0
BLOCK
  5
116
330
115
100
AcDbEntity
  8
0
100
AcDbBlockBegin
  2
*U1
 70
1
 10
0.0
 20
0.0
 30
0.0
  3
*U1
  1

  0
INSERT
  5
118
330
115
100
AcDbEntity
  8
0
100
AcDbBlockReference
 66
1
  2
reinforcement_description
 10
0.0
 20
0.0
 30
0.0
  0
ATTRIB
  5
11A
330
115
100
AcDbEntity
  8
KONEC-Obrys
100
AcDbText
 10
-14.0
 20
5.0
 30
0.0
 40
2.5
  1
1
  7
KONEC-Tekst
 72
1
 11
-14.0
 21
5.0
 31
0.0
100
AcDbAttribute
280
0
  2
NUMBER
 70
0
 74
2
 71
1
 72
0
 11
-14.0
 21
5.0
 31
0.0
  0
ATTRIB
  5
11B
330
115
100
AcDbEntity
  8
KONEC-Obrys
100
AcDbText
 10
-4.0
 20
5.0
 30
0.0
 40
2.5
  1
2
  7
KONEC-Tekst
 72
2
 11
-4.0
 21
5.0
 31
0.0
100
AcDbAttribute
280
0
  2
QUANTITY
 70
0
 74
2
 71
1
 72
0
 11
-4.0
 21
5.0
 31
0.0
  0
ATTRIB
  5
11C
330
115
100
AcDbEntity
  8
KONEC-Obrys
100
AcDbText
 10
0.0
 20
5.0
 30
0.0
 40
2.5
  1
16
  7
KONEC-Tekst
 11
0.0
 21
5.0
 31
0.0
100
AcDbAttribute
280
0
  2
DIAMETER
 70
0
 74
2
 71
1
 72
0
 11
0.0
 21
5.0
 31
0.0
  0
ATTRIB
  5
11D
330
115
100
AcDbEntity
  8
KONEC-Obrys
100
AcDbText
 10
9.0
 20
5.0
 30
0.0
 40
2.5
  1
4703
  7
KONEC-Tekst
 11
9.0
 21
5.0
 31
0.0
100
AcDbAttribute
280
0
  2
LENGTH
 70
0
 74
2
 71
1
 72
0
 11
9.0
 21
5.0
 31
0.0
  0
SEQEND
  5
119
330
115
100
AcDbEntity
  8
0
  0
ENDBLK
  5
117
330
115
100
AcDbEntity
  8
0
100
AcDbBlockEnd
  0
BLOCK
  5
127
330
126
100
AcDbEntity
  8
0
100
AcDbBlockBegin
  2
*U2
 70
1
 10
0.0
 20
0.0
 30
0.0
  3
*U2
  1

  0
INSERT
  5
129
330
126
100
AcDbEntity
  8
0
100
AcDbBlockReference
 66
1
  2
reinforcement_description
 10
0.0
 20
0.0
 30
0.0
  0
ATTRIB
  5
12B
330
126
100
AcDbEntity
  8
KONEC-Obrys
100
AcDbText
 10
-14.0
 20
5.0
 30
0.0
 40
2.5
  1
2
  7
KONEC-Tekst
 72
1
 11
-14.0
 21
5.0
 31
0.0
100
AcDbAttribute
280
0
  2
NUMBER
 70
0
 74
2
 71
1
 72
0
 11
-14.0
 21
5.0
 31
0.0
  0
ATTRIB
  5
12C
330
126
100
AcDbEntity
  8
KONEC-Obrys
100
AcDbText
 10
-4.0
 20
5.0
 30
0.0
 40
2.5
  1
3
  7
KONEC-Tekst
 72
2
 11
-4.0
 21
5.0
 31
0.0
100
AcDbAttribute
280
0
  2
QUANTITY
 70
0
 74
2
 71
1
 72
0
 11
-4.0
 21
5.0
 31
0.0
  0
ATTRIB
  5
12D
330
126
100
AcDbEntity
  8
KONEC-Obrys
100
AcDbText
 10
0.0
 20
5.0
 30
0.0
 40
2.5
  1
12
  7
KONEC-Tekst
 11
0.0
 21
5.0
 31
0.0
100
AcDbAttribute
280
0
  2
DIAMETER
 70
0
 74
2
 71
1
 72
0
 11
0.0
 21
5.0
 31
0.0
  0
ATTRIB
  5
12E
330
126
100
AcDbEntity
  8
KONEC-Obrys
100
AcDbText
 10
9.0
 20
5.0
 30
0.0
 40
2.5
  1
3895
  7
KONEC-Tekst
 11
9.0
 21
5.0
 31
0.0
100
AcDbAttribute
280
0
  2
LENGTH
 70
0
 74
2
 71
1
 72
0
 11
9.0
 21
5.0
 31
0.0
  0
SEQEND
  5
12A
330
126
100
AcDbEntity
  8
0
  0
ENDBLK
  5
128
330
126
100
AcDbEntity
  8
0
100
AcDbBlockEnd
  0
BLOCK
  5
138
330
137
100
AcDbEntity
  8
0
100
AcDbBlockBegin
  2
*U3
 70
1
 10
0.0
 20
0.0
 30
0.0
  3
*U3
  1

  0
INSERT
  5
13A
330
137
100
AcDbEntity
  8
0
100
AcDbBlockReference
 66
1
  2
reinforcement_description
 10
0.0
 20
0.0
 30
0.0
  0
ATTRIB
  5
13C
330
137
100
AcDbEntity
  8
KONEC-Obrys
100
AcDbText
 10
-14.0
 20
5.0
 30
0.0
 40
2.5
  1
3
  7
KONEC-Tekst
 72
1
 11
-14.0
 21
5.0
 31
0.0
100
AcDbAttribute
280
0
  2
NUMBER
 70
0
 74
2
 71
1
 72
0
 11
-14.0
 21
5.0
 31
0.0
  0
ATTRIB
  5
13D
330
137
100
AcDbEntity
  8
KONEC-Obrys
100
AcDbText
 10
-4.0
 20
5.0
 30
0.0
 40
2.5
  1
20
  7
KONEC-Tekst
 72
2
 11
-4.0
 21
5.0
 31
0.0
100
AcDbAttribute
280
0
  2
QUANTITY
 70
0
 74
2
 71
1
 72
0
 11
-4.0
 21
5.0
 31
0.0
  0
ATTRIB
  5
13E
330
137
100
AcDbEntity
  8
KONEC-Obrys
100
AcDbText
 10
0.0
 20
5.0
 30
0.0
 40
2.5
  1
8
  7
KONEC-Tekst
 11
0.0
 21
5.0
 31
0.0
100
AcDbAttribute
280
0
  2
DIAMETER
 70
0
 74
2
 71
1
 72
0
 11
0.0
 21
5.0
 31
0.0
  0
ATTRIB
  5
13F
330
137
100
AcDbEntity
  8
KONEC-Obrys
100
AcDbText
 10
9.0
 20
5.0
 30
0.0
 40
2.5
  1
1375
  7
KONEC-Tekst
 11
9.0
 21
5.0
 31
0.0
100
AcDbAttribute
280
0
  2
LENGTH
 70
0
 74
2
 71
1
 72
0
 11
9.0
 21
5.0
 31
0.0
  0
SEQEND
  5
13B
330
137
100
AcDbEntity
  8
0
  0
ENDBLK
  5
139
330
137
100
AcDbEntity
  8
0
100
AcDbBlockEnd
  0
BLOCK
  5
14C
330
14B
100
AcDbEntity
  8
0
100
AcDbBlockBegin
  2
_OBLIQUE
 70
0
 10
0.0
 20
0.0
 30
0.0
  3
_OBLIQUE
  1

  0
LINE
  5
14E
330
14B
100
AcDbEntity
  8
0
  6
BYBLOCK
 62
0
100
AcDbLine
 10
-0.5
 20
-0.5000000000000001
 30
0.0
 11
0.5000000000000001
 21
0.5000000000000001
 31
0.0
  0
ENDBLK
  5
14D
330
14B
100
AcDbEntity
  8
0
100
AcDbBlockEnd
  0
BLOCK
  5
150
330
14F
100
AcDbEntity
  8
0
100
AcDbBlockBegin
  2
_NONE
 70
0
 10
0.0
 20
0.0
 30
0.0
  3
_NONE
  1

  0
ENDBLK
  5
151
330
14F
100
AcDbEntity
  8
0
100
AcDbBlockEnd
  0
ENDSEC
  0
SECTION
  2
ENTITIES
  0
LWPOLYLINE
  5
54
330
17
100
AcDbEntity
  8
KONEC-Obrys
100
AcDbPolyline
 90
6
 70
1
 10
-5000.0
 20
-600.0
 10
-4750.0
 20
-600.0
 10
-1300.0
 20
-600.0
 10
-1050.0
 20
-600.0
 10
-1050.0
 20
-100.0
 10
-5000.0
 20
-100.0
  0
HATCH
  5
55
330
17
100
AcDbEntity
  8
KONEC-Kreskowanie
100
AcDbHatch
 10
0.0
 20
0.0
 30
0.0
210
0.0
220
0.0
230
1.0
  2
ANSI33
 70
0
 71
0
 91
1
 92
3
 72
0
 73
1
 93
4
 10
-5000.0
 20
-600.0
 10
-5000.0
 20
-800.0
 10
-4750.0
 20
-800.0
 10
-4750.0
 20
-600.0
 97
0
 75
1
 76
1
 52
0.0
 41
20.0
 77
0
 78
2
 53
45.0
 43
0.0
 44
0.0
 45
-89.80256121
 46
89.80256121
 79
0
 53
45.0
 43
89.80256106
 44
0.0
 45
-89.80256121
 46
89.80256121
 79
2
 49
63.5
 49
-31.75
 98
0
  0
LWPOLYLINE
  5
56
330
17
100
AcDbEntity
  8
KONEC-Obrys
100
AcDbPolyline
 90
2
 70
0
 10
-5000.0
 20
-600.0
 10
-5000.0
 20
-800.0
  0
LWPOLYLINE
  5
57
330
17
100
AcDbEntity
  8
KONEC-Obrys
100
AcDbPolyline
 90
2
 70
0
 10
-4750.0
 20
-600.0
 10
-4750.0
 20
-800.0
  0
LWPOLYLINE
  5
58
330
17
100
AcDbEntity
  8
KONEC-Przerywana
100
AcDbPolyline
 90
2
 70
0
 10
-5200.0
 20
-800.0
 10
-4550.0
 20
-800.0
  0
HATCH
  5
59
330
17
100
AcDbEntity
  8
KONEC-Kreskowanie
100
AcDbHatch
 10
0.0
 20
0.0
 30
0.0
210
0.0
220
0.0
230
1.0
  2
ANSI33
 70
0
 71
0
 91
1
 92
3
 72
0
 73
1
 93
4
 10
-1300.0
 20
-600.0
 10
-1300.0
 20
-800.0
 10
-1050.0
 20
-800.0
 10
-1050.0
 20
-600.0
 97
0
 75
1
 76
1
 52
0.0
 41
20.0
 77
0
 78
2
 53
45.0
 43
0.0
 44
0.0
 45
-89.80256121
 46
89.80256121
 79
0
 53
45.0
 43
89.80256106
 44
0.0
 45
-89.80256121
 46
89.80256121
 79
2
 49
63.5
 49
-31.75
 98
0
  0
LWPOLYLINE
  5
5A
330
17
100
AcDbEntity
  8
KONEC-Obrys
100
AcDbPolyline
 90
2
 70
0
 10
-1300.0
 20
-600.0
 10
-1300.0
 20
-800.0
  0
LWPOLYLINE
  5
5B
330
17
100
AcDbEntity
  8
KONEC-Obrys
100
AcDbPolyline
 90
2
 70
0
 10
-1050.0
 20
-600.0
 10
-1050.0
 20
-800.0
  0
LWPOLYLINE
  5
5C
330
17
100
AcDbEntity
  8
KONEC-Przerywana
100
AcDbPolyline
 90
2
 70
0
 10
-1500.0
 20
-800.0
 10
-850.0
 20
-800.0
  0
LWPOLYLINE
  5
5D
330
17
100
AcDbEntity
  8
KONEC-Prety
100
AcDbPolyline
 90
6
 70
0
 10
-4967.0
 20
-575.0
 40
16.0
 41
16.0
 10
-4967.0
 20
-186.0
 40
16.0
 41
16.0
 42
-0.41421356237309515
 10
-4927.0
 20
-146.0
 40
16.0
 41
16.0
 10
-1128.0
 20
-146.0
 40
16.0
 41
16.0
 42
-0.41421356237309515
 10
-1088.0
 20
-186.0
 40
16.0
 41
16.0
 10
-1088.0
 20
-575.0
  0
LWPOLYLINE
  5
5E
330
17
100
AcDbEntity
  8
KONEC-Prety
100
AcDbPolyline
 90
6
 70
0
 10
-4967.0
 20
-1675.0
 40
16.0
 41
16.0
 10
-4967.0
 20
-1286.0
 40
16.0
 41
16.0
 42
-0.41421356237309515
 10
-4927.0
 20
-1246.0
 40
16.0
 41
16.0
 10
-1128.0
 20
-1246.0
 40
16.0
 41
16.0
 42
-0.41421356237309515
 10
-1088.0
 20
-1286.0
 40
16.0
 41
16.0
 10
-1088.0
 20
-1675.0
  0
DIMENSION
  5
5F
330
17
100
AcDbEntity
  8
KONEC-Wymiary
100
AcDbDimension
280
0
  3
KONEC_BAR_1_20
 10
-4992.0
 20
-1675.0
 30
0.0
 70
32
 71
5
  1
<>
100
AcDbAlignedDimension
 13
-4967.0
 23
-1675.0
 33
0.0
 14
-4927.0
 24
-1238.0
 34
0.0
 50
90.0
100
AcDbRotatedDimension
  0
DIMENSION
  5
60
330
17
100
AcDbEntity
  8
KONEC-Wymiary
100
AcDbDimension
280
0
  3
KONEC_BAR_1_20
 10
-1128.0
 20
-1346.0
 30
0.0
 70
32
 71
5
  1
<>
100
AcDbAlignedDimension
 13
-4975.0
 23
-1286.0
 33
0.0
 14
-1080.0
 24
-1286.0
 34
0.0
 50
0.0
100
AcDbRotatedDimension
  0
DIMENSION
  5
61
330
17
100
AcDbEntity
  8
KONEC-Wymiary
100
AcDbDimension
280
0
  3
KONEC_BAR_1_20
 10
-988.0
 20
-1675.0
 30
0.0
 70
32
 71
5
  1
<>
100
AcDbAlignedDimension
 13
-1128.0
 23
-1238.0
 33
0.0
 14
-1088.0
 24
-1675.0
 34
0.0
 50
90.0
100
AcDbRotatedDimension
  0
LWPOLYLINE
  5
62
330
17
100
AcDbEntity
  8
KONEC-Prety
100
AcDbPolyline
 90
2
 70
0
 10
-4975.0
 20
-561.0
 40
12.0
 41
12.0
 10
-1080.0
 20
-561.0
  0
LWPOLYLINE
  5
63
330
17
100
AcDbEntity
  8
KONEC-Prety
100
AcDbPolyline
 90
2
 70
0
 10
-4975.0
 20
-1811.0
 40
12.0
 41
12.0
 10
-1080.0
 20
-1811.0
  0
DIMENSION
  5
64
330
17
100
AcDbEntity
  8
KONEC-Wymiary
100
AcDbDimension
280
0
  3
KONEC_BAR_1_20
 10
-4975.0
 20
-1911.0
 30
0.0
 70
32
 71
5
  1
<>
100
AcDbAlignedDimension
 13
-4975.0
 23
-1811.0
 33
0.0
 14
-1080.0
 24
-1811.0
 34
0.0
 50
0.0
100
AcDbRotatedDimension
  0
LWPOLYLINE
  5
6B
330
17
100
AcDbEntity
  8
KONEC-Strzemiona
100
AcDbPolyline
 90
2
 70
0
 10
-4742.5
 20
-575.0
 40
8.0
 41
8.0
 10
-4742.5
 20
-130.0
  0
LWPOLYLINE
  5
6C
330
17
100
AcDbEntity
  8
KONEC-Strzemiona
100
AcDbPolyline
 90
2
 70
0
 10
-4492.5
 20
-575.0
 40
8.0
 41
8.0
 10
-4492.5
 20
-130.0
  0
LWPOLYLINE
  5
6D
330
17
100
AcDbEntity
  8
KONEC-Strzemiona
100
AcDbPolyline
 90
2
 70
0
 10
-4242.5
 20
-575.0
 40
8.0
 41
8.0
 10
-4242.5
 20
-130.0
  0
LWPOLYLINE
  5
6E
330
17
100
AcDbEntity
  8
KONEC-Strzemiona
100
AcDbPolyline
 90
2
 70
0
 10
-3992.5
 20
-575.0
 40
8.0
 41
8.0
 10
-3992.5
 20
-130.0
  0
LWPOLYLINE
  5
6F
330
17
100
AcDbEntity
  8
KONEC-Strzemiona
100
AcDbPolyline
 90
2
 70
0
 10
-3742.5
 20
-575.0
 40
8.0
 41
8.0
 10
-3742.5
 20
-130.0
  0
LWPOLYLINE
  5
70
330
17
100
AcDbEntity
  8
KONEC-Strzemiona
100
AcDbPolyline
 90
2
 70
0
 10
-3477.5
 20
-575.0
 40
8.0
 41
8.0
 10
-3477.5
 20
-130.0
  0
LWPOLYLINE
  5
71
330
17
100
AcDbEntity
  8
KONEC-Strzemiona
100
AcDbPolyline
 90
2
 70
0
 10
-3212.5
 20
-575.0
 40
8.0
 41
8.0
 10
-3212.5
 20
-130.0
  0
LWPOLYLINE
  5
72
330
17
100
AcDbEntity
  8
KONEC-Strzemiona
100
AcDbPolyline
 90
2
 70
0
 10
-2947.5
 20
-575.0
 40
8.0
 41
8.0
 10
-2947.5
 20
-130.0
  0
LWPOLYLINE
  5
73
330
17
100
AcDbEntity
  8
KONEC-Strzemiona
100
AcDbPolyline
 90
2
 70
0
 10
-2682.5
 20
-575.0
 40
8.0
 41
8.0
 10
-2682.5
 20
-130.0
  0
LWPOLYLINE
  5
74
330
17
100
AcDbEntity
  8
KONEC-Strzemiona
100
AcDbPolyline
 90
2
 70
0
 10
-2557.5
 20
-575.0
 40
8.0
 41
8.0
 10
-2557.5
 20
-130.0
  0
LWPOLYLINE
  5
75
330
17
100
AcDbEntity
  8
KONEC-Strzemiona
100
AcDbPolyline
 90
2
 70
0
 10
-2432.5
 20
-575.0
 40
8.0
 41
8.0
 10
-2432.5
 20
-130.0
  0
LWPOLYLINE
  5
76
330
17
100
AcDbEntity
  8
KONEC-Strzemiona
100
AcDbPolyline
 90
2
 70
0
 10
-2307.5
 20
-575.0
 40
8.0
 41
8.0
 10
-2307.5
 20
-130.0
  0
LWPOLYLINE
  5
77
330
17
100
AcDbEntity
  8
KONEC-Strzemiona
100
AcDbPolyline
 90
2
 70
0
 10
-2182.5
 20
-575.0
 40
8.0
 41
8.0
 10
-2182.5
 20
-130.0
  0
LWPOLYLINE
  5
78
330
17
100
AcDbEntity
  8
KONEC-Strzemiona
100
AcDbPolyline
 90
2
 70
0
 10
-2057.5
 20
-575.0
 40
8.0
 41
8.0
 10
-2057.5
 20
-130.0
  0
LWPOLYLINE
  5
79
330
17
100
AcDbEntity
  8
KONEC-Strzemiona
100
AcDbPolyline
 90
2
 70
0
 10
-1932.5
 20
-575.0
 40
8.0
 41
8.0
 10
-1932.5
 20
-130.0
  0
LWPOLYLINE
  5
7A
330
17
100
AcDbEntity
  8
KONEC-Strzemiona
100
AcDbPolyline
 90
2
 70
0
 10
-1807.5
 20
-575.0
 40
8.0
 41
8.0
 10
-1807.5
 20
-130.0
  0
LWPOLYLINE
  5
7B
330
17
100
AcDbEntity
  8
KONEC-Strzemiona
100
AcDbPolyline
 90
2
 70
0
 10
-1682.5
 20
-575.0
 40
8.0
 41
8.0
 10
-1682.5
 20
-130.0
  0
LWPOLYLINE
  5
7C
330
17
100
AcDbEntity
  8
KONEC-Strzemiona
100
AcDbPolyline
 90
2
 70
0
 10
-1557.5
 20
-575.0
 40
8.0
 41
8.0
 10
-1557.5
 20
-130.0
  0
LWPOLYLINE
  5
7D
330
17
100
AcDbEntity
  8
KONEC-Strzemiona
100
AcDbPolyline
 90
2
 70
0
 10
-1432.5
 20
-575.0
 40
8.0
 41
8.0
 10
-1432.5
 20
-130.0
  0
LWPOLYLINE
  5
7E
330
17
100
AcDbEntity
  8
KONEC-Strzemiona
100
AcDbPolyline
 90
2
 70
0
 10
-1307.5
 20
-575.0
 40
8.0
 41
8.0
 10
-1307.5
 20
-130.0
  0
DIMENSION
  5
7F
330
17
100
AcDbEntity
  8
KONEC-Wymiary
100
AcDbDimension
280
0
  3
KONEC_1_20
 10
-5000.0
 20
-1000.0
 30
0.0
 70
32
 71
5
  1
<>
100
AcDbAlignedDimension
 13
-5000.0
 23
-1000.0
 33
0.0
 14
-4750.0
 24
-1000.0
 34
0.0
 50
0.0
100
AcDbRotatedDimension
  0
DIMENSION
  5
80
330
17
100
AcDbEntity
  8
KONEC-Wymiary
100
AcDbDimension
280
0
  3
KONEC_1_20
 10
-5000.0
 20
-1000.0
 30
0.0
 70
32
 71
5
  1
<>
100
AcDbAlignedDimension
 13
-4750.0
 23
-1000.0
 33
0.0
 14
-1300.0
 24
-1000.0
 34
0.0
 50
0.0
100
AcDbRotatedDimension
  0
DIMENSION
  5
81
330
17
100
AcDbEntity
  8
KONEC-Wymiary
100
AcDbDimension
280
0
  3
KONEC_1_20
 10
-5000.0
 20
-1000.0
 30
0.0
 70
32
 71
5
  1
<>
100
AcDbAlignedDimension
 13
-1300.0
 23
-1000.0
 33
0.0
 14
-1050.0
 24
-1000.0
 34
0.0
 50
0.0
100
AcDbRotatedDimension
  0
DIMENSION
  5
82
330
17
100
AcDbEntity
  8
KONEC-Wymiary
100
AcDbDimension
280
0
  3
KONEC_1_20
 10
-5200.0
 20
-600.0
 30
0.0
 70
32
 71
5
  1
<>
100
AcDbAlignedDimension
 13
-5000.0
 23
-600.0
 33
0.0
 14
-5000.0
 24
-100.0
 34
0.0
 50
90.0
100
AcDbRotatedDimension
  0
DIMENSION
  5
83
330
17
100
AcDbEntity
  8
KONEC-Wymiary
100
AcDbDimension
280
0
  3
KONEC_1_20
 10
-5000.0
 20
-900.0
 30
0.0
 70
32
 71
5
  1
<>
100
AcDbAlignedDimension
 13
-4750.0
 23
-900.0
 33
0.0
 14
-4742.5
 24
-900.0
 34
0.0
 50
0.0
100
AcDbRotatedDimension
  0
DIMENSION
  5
84
330
17
100
AcDbEntity
  8
KONEC-Wymiary
100
AcDbDimension
280
0
  3
KONEC_1_20
 10
-5000.0
 20
-900.0
 30
0.0
 70
32
 71
5
  1
<>
100
AcDbAlignedDimension
 13
-1307.5
 23
-900.0
 33
0.0
 14
-1300.0
 24
-900.0
 34
0.0
 50
0.0
100
AcDbRotatedDimension
  0
DIMENSION
  5
85
330
17
100
AcDbEntity
  8
KONEC-Wymiary
100
AcDbDimension
280
0
  3
KONEC_1_20
 10
-5000.0
 20
-900.0
 30
0.0
 70
32
 71
5
  1
4 x 250 = <>
100
AcDbAlignedDimension
 13
-4742.5
 23
-900.0
 33
0.0
 14
-3742.5
 24
-900.0
 34
0.0
 50
0.0
100
AcDbRotatedDimension
  0
DIMENSION
  5
86
330
17
100
AcDbEntity
  8
KONEC-Wymiary
100
AcDbDimension
280
0
  3
KONEC_1_20
 10
-5000.0
 20
-900.0
 30
0.0
 70
32
 71
5
  1
11 x 125 = <>
100
AcDbAlignedDimension
 13
-1307.5
 23
-900.0
 33
0.0
 14
-2682.5
 24
-900.0
 34
0.0
 50
0.0
100
AcDbRotatedDimension
  0
DIMENSION
  5
87
330
17
100
AcDbEntity
  8
KONEC-Wymiary
100
AcDbDimension
280
0
  3
KONEC_1_20
 10
-5000.0
 20
-900.0
 30
0.0
 70
32
 71
5
  1
265 x 4 = <>
100
AcDbAlignedDimension
 13
-3742.5
 23
-900.0
 33
0.0
 14
-2682.5
 24
-900.0
 34
0.0
 50
0.0
100
AcDbRotatedDimension
  0
LWPOLYLINE
  5
88
330
17
100
AcDbEntity
  8
KONEC-Obrys
100
AcDbPolyline
 90
4
 70
1
 10
-550.0
 20
-600.0
 10
-300.0
 20
-600.0
 10
-300.0
 20
-100.0
 10
-550.0
 20
-100.0
  0
LWPOLYLINE
  5
89
330
17
100
AcDbEntity
  8
KONEC-Prety
100
AcDbPolyline
 90
12
 70
0
 10
-511.0
 20
-234.0
 40
8.0
 41
8.0
 10
-511.0
 20
-154.0
 40
8.0
 41
8.0
 42
-0.41421356237309515
 10
-491.0
 20
-134.0
 40
8.0
 41
8.0
 10
-359.0
 20
-134.0
 40
8.0
 41
8.0
 42
-0.41421356237309515
 10
-339.0
 20
-154.0
 40
8.0
 41
8.0
 10
-339.0
 20
-551.0
 40
8.0
 41
8.0
 42
-0.41421356237309515
 10
-359.0
 20
-571.0
 40
8.0
 41
8.0
 10
-491.0
 20
-571.0
 40
8.0
 41
8.0
 42
-0.41421356237309515
 10
-511.0
 20
-551.0
 40
8.0
 41
8.0
 10
-511.0
 20
-154.0
 40
8.0
 41
8.0
 42
-0.41421356237309515
 10
-491.0
 20
-134.0
 40
8.0
 41
8.0
 10
-411.0
 20
-134.0
 40
8.0
 41
8.0
  0
LWPOLYLINE
  5
8A
330
17
100
AcDbEntity
  8
KONEC-Prety
100
AcDbPolyline
 90
8
 70
0
 10
211.0
 20
-134.0
 40
8.0
 41
8.0
 10
311.0
 20
-134.0
 40
8.0
 41
8.0
 10
311.0
 20
-571.0
 40
8.0
 41
8.0
 10
139.0
 20
-571.0
 40
8.0
 41
8.0
 10
139.0
 20
-134.0
 40
8.0
 41
8.0
 10
139.0
 20
-134.0
 40
8.0
 41
8.0
 10
287.95636945092343
 20
-48.0
 40
8.0
 41
8.0
 10
337.95636945092343
 20
-134.60254037844388
 40
8.0
 41
8.0
  0
DIMENSION
  5
8B
330
17
100
AcDbEntity
  8
KONEC-Wymiary
100
AcDbDimension
280
0
  3
KONEC_BAR_1_20
 10
100.0
 20
-650.0
 30
0.0
 70
32
 71
5
  1
<>
100
AcDbAlignedDimension
 13
135.0
 23
-575.0
 33
0.0
 14
315.0
 24
-575.0
 34
0.0
 50
0.0
100
AcDbRotatedDimension
  0
DIMENSION
  5
8C
330
17
100
AcDbEntity
  8
KONEC-Wymiary
100
AcDbDimension
280
0
  3
KONEC_BAR_1_20
 10
110.0
 20
-600.0
 30
0.0
 70
32
 71
5
  1
<>
100
AcDbAlignedDimension
 13
135.0
 23
-575.0
 33
0.0
 14
135.0
 24
-130.0
 34
0.0
 50
90.0
100
AcDbRotatedDimension
  0
LWPOLYLINE
  5
8D
330
17
100
AcDbEntity
  8
KONEC-Obrys
100
AcDbPolyline
 90
4
 70
1
 10
-750.0
 20
-900.0
 10
1950.0
 20
-900.0
 10
1950.0
 20
-1100.0
 10
-750.0
 20
-1100.0
  0
MTEXT
  5
8E
330
17
100
AcDbEntity
  8
KONEC-Obrys
100
AcDbMText
 10
600.0
 20
-1000.0
 30
0.0
 40
100.0
 71
5
  1
WYKAZ ZBROJENIA
  7
KONEC-Tekst
  0
LWPOLYLINE
  5
8F
330
17
100
AcDbEntity
  8
KONEC-Obrys
100
AcDbPolyline
 90
4
 70
1
 10
-750.0
 20
-1100.0
 10
-550.0
 20
-1100.0
 10
-550.0
 20
-1400.0
 10
-750.0
 20
-1400.0
  0
MTEXT
  5
90
330
17
100
AcDbEntity
  8
KONEC-Obrys
100
AcDbMText
 10
-650.0
 20
-1250.0
 30
0.0
 40
50.0
 71
5
  1
Poz.\Pnr
  7
KONEC-Tekst
  0
LWPOLYLINE
  5
91
330
17
100
AcDbEntity
  8
KONEC-Obrys
100
AcDbPolyline
 90
4
 70
1
 10
-550.0
 20
-1100.0
 10
-250.0
 20
-1100.0
 10
-250.0
 20
-1300.0
 10
-550.0
 20
-1300.0
  0
MTEXT
  5
92
330
17
100
AcDbEntity
  8
KONEC-Obrys
100
AcDbMText
 10
-400.0
 20
-1200.0
 30
0.0
 40
50.0
 71
5
  1
Średnica\P%%c
  7
KONEC-Tekst
  0
LWPOLYLINE
  5
93
330
17
100
AcDbEntity
  8
KONEC-Obrys
100
AcDbPolyline
 90
4
 70
1
 10
-550.0
 20
-1300.0
 10
-250.0
 20
-1300.0
 10
-250.0
 20
-1400.0
 10
-550.0
 20
-1400.0
  0
MTEXT
  5
94
330
17
100
AcDbEntity
  8
KONEC-Obrys
100
AcDbMText
 10
-400.0
 20
-1350.0
 30
0.0
 40
50.0
 71
5
  1
[mm]
  7
KONEC-Tekst
  0
LWPOLYLINE
  5
95
330
17
100
AcDbEntity
  8
KONEC-Obrys
100
AcDbPolyline
 90
4
 70
1
 10
-250.0
 20
-1100.0
 10
50.0
 20
-1100.0
 10
50.0
 20
-1300.0
 10
-250.0
 20
-1300.0
  0
MTEXT
  5
96
330
17
100
AcDbEntity
  8
KONEC-Obrys
100
AcDbMText
 10
-100.0
 20
-1200.0
 30
0.0
 40
50.0
 71
5
  1
Długość
  7
KONEC-Tekst
  0
LWPOLYLINE
  5
97
330
17
100
AcDbEntity
  8
KONEC-Obrys
100
AcDbPolyline
 90
4
 70
1
 10
-250.0
 20
-1300.0
 10
50.0
 20
-1300.0
 10
50.0
 20
-1400.0
 10
-250.0
 20
-1400.0
  0
MTEXT
  5
98
330
17
100
AcDbEntity
  8
KONEC-Obrys
100
AcDbMText
 10
-100.0
 20
-1350.0
 30
0.0
 40
50.0
 71
5
  1
[mm]
  7
KONEC-Tekst
  0
LWPOLYLINE
  5
99
330
17
100
AcDbEntity
  8
KONEC-Obrys
100
AcDbPolyline
 90
4
 70
1
 10
50.0
 20
-1100.0
 10
350.0
 20
-1100.0
 10
350.0
 20
-1300.0
 10
50.0
 20
-1300.0
  0
MTEXT
  5
9A
330
17
100
AcDbEntity
  8
KONEC-Obrys
100
AcDbMText
 10
200.0
 20
-1200.0
 30
0.0
 40
50.0
 71
5
  1
Liczba w\P1 elem.
  7
KONEC-Tekst
  0
LWPOLYLINE
  5
9B
330
17
100
AcDbEntity
  8
KONEC-Obrys
100
AcDbPolyline
 90
4
 70
1
 10
50.0
 20
-1300.0
 10
350.0
 20
-1300.0
 10
350.0
 20
-1400.0
 10
50.0
 20
-1400.0
  0
MTEXT
  5
9C
330
17
100
AcDbEntity
  8
KONEC-Obrys
100
AcDbMText
 10
200.0
 20
-1350.0
 30
0.0
 40
50.0
 71
5
  1
[szt.]
  7
KONEC-Tekst
  0
LWPOLYLINE
  5
9D
330
17
100
AcDbEntity
  8
KONEC-Obrys
100
AcDbPolyline
 90
4
 70
1
 10
350.0
 20
-1100.0
 10
650.0
 20
-1100.0
 10
650.0
 20
-1300.0
 10
350.0
 20
-1300.0
  0
MTEXT
  5
9E
330
17
100
AcDbEntity
  8
KONEC-Obrys
100
AcDbMText
 10
500.0
 20
-1200.0
 30
0.0
 40
50.0
 71
5
  1
Liczba\Pogólna
  7
KONEC-Tekst
  0
LWPOLYLINE
  5
9F
330
17
100
AcDbEntity
  8
KONEC-Obrys
100
AcDbPolyline
 90
4
 70
1
 10
350.0
 20
-1300.0
 10
650.0
 20
-1300.0
 10
650.0
 20
-1400.0
 10
350.0
 20
-1400.0
  0
MTEXT
  5
A0
330
17
100
AcDbEntity
  8
KONEC-Obrys
100
AcDbMText
 10
500.0
 20
-1350.0
 30
0.0
 40
50.0
 71
5
  1
[szt.]
  7
KONEC-Tekst
  0
LWPOLYLINE
  5
A1
330
17
100
AcDbEntity
  8
KONEC-Obrys
100
AcDbPolyline
 90
4
 70
1
 10
650.0
 20
-1100.0
 10
1550.0
 20
-1100.0
 10
1550.0
 20
-1200.0
 10
650.0
 20
-1200.0
  0
MTEXT
  5
A2
330
17
100
AcDbEntity
  8
KONEC-Obrys
100
AcDbMText
 10
1100.0
 20
-1150.0
 30
0.0
 40
50.0
 71
5
  1
Długość całkowita [m]
  7
KONEC-Tekst
  0
LWPOLYLINE
  5
A3
330
17
100
AcDbEntity
  8
KONEC-Obrys
100
AcDbPolyline
 90
4
 70
1
 10
650.0
 20
-1200.0
 10
1250.0
 20
-1200.0
 10
1250.0
 20
-1300.0
 10
650.0
 20
-1300.0
  0
MTEXT
  5
A4
330
17
100
AcDbEntity
  8
KONEC-Obrys
100
AcDbMText
 10
950.0
 20
-1250.0
 30
0.0
 40
50.0
 71
5
  1
B500SP
  7
KONEC-Tekst
  0
LWPOLYLINE
  5
A5
330
17
100
AcDbEntity
  8
KONEC-Obrys
100
AcDbPolyline
 90
4
 70
1
 10
650.0
 20
-1300.0
 10
950.0
 20
-1300.0
 10
950.0
 20
-1400.0
 10
650.0
 20
-1400.0
  0
MTEXT
  5
A6
330
17
100
AcDbEntity
  8
KONEC-Obrys
100
AcDbMText
 10
800.0
 20
-1350.0
 30
0.0
 40
50.0
 71
5
  1
%%c16
  7
KONEC-Tekst
  0
LWPOLYLINE
  5
A7
330
17
100
AcDbEntity
  8
KONEC-Obrys
100
AcDbPolyline
 90
4
 70
1
 10
950.0
 20
-1300.0
 10
1250.0
 20
-1300.0
 10
1250.0
 20
-1400.0
 10
950.0
 20
-1400.0
  0
MTEXT
  5
A8
330
17
100
AcDbEntity
  8
KONEC-Obrys
100
AcDbMText
 10
1100.0
 20
-1350.0
 30
0.0
 40
50.0
 71
5
  1
%%c12
  7
KONEC-Tekst
  0
LWPOLYLINE
  5
A9
330
17
100
AcDbEntity
  8
KONEC-Obrys
100
AcDbPolyline
 90
4
 70
1
 10
1250.0
 20
-1200.0
 10
1550.0
 20
-1200.0
 10
1550.0
 20
-1300.0
 10
1250.0
 20
-1300.0
  0
MTEXT
  5
AA
330
17
100
AcDbEntity
  8
KONEC-Obrys
100
AcDbMText
 10
1400.0
 20
-1250.0
 30
0.0
 40
50.0
 71
5
  1
B500A
  7
KONEC-Tekst
  0
LWPOLYLINE
  5
AB
330
17
100
AcDbEntity
  8
KONEC-Obrys
100
AcDbPolyline
 90
4
 70
1
 10
1250.0
 20
-1300.0
 10
1550.0
 20
-1300.0
 10
1550.0
 20
-1400.0
 10
1250.0
 20
-1400.0
  0
MTEXT
  5
AC
330
17
100
AcDbEntity
  8
KONEC-Obrys
100
AcDbMText
 10
1400.0
 20
-1350.0
 30
0.0
 40
50.0
 71
5
  1
%%c8
  7
KONEC-Tekst
  0
LWPOLYLINE
  5
AD
330
17
100
AcDbEntity
  8
KONEC-Obrys
100
AcDbPolyline
 90
4
 70
1
 10
1550.0
 20
-1100.0
 10
1950.0
 20
-1100.0
 10
1950.0
 20
-1400.0
 10
1550.0
 20
-1400.0
  0
MTEXT
  5
AE
330
17
100
AcDbEntity
  8
KONEC-Obrys
100
AcDbMText
 10
1750.0
 20
-1250.0
 30
0.0
 40
50.0
 71
5
  1
Uwagi
  7
KONEC-Tekst
  0
LWPOLYLINE
  5
AF
330
17
100
AcDbEntity
  8
KONEC-Obrys
100
AcDbPolyline
 90
4
 70
1
 10
-750.0
 20
-1400.0
 10
1950.0
 20
-1400.0
 10
1950.0
 20
-1500.0
 10
-750.0
 20
-1500.0
  0
MTEXT
  5
B0
330
17
100
AcDbEntity
  8
KONEC-Obrys
100
AcDbMText
 10
-730.0
 20
-1450.0
 30
0.0
 40
50.0
 71
4
  1
Element: BŻ-3
  7
KONEC-Tekst
  0
LWPOLYLINE
  5
B1
330
17
100
AcDbEntity
  8
KONEC-Obrys
100
AcDbPolyline
 90
4
 70
1
 10
-750.0
 20
-1400.0
 10
1950.0
 20
-1400.0
 10
1950.0
 20
-1500.0
 10
-750.0
 20
-1500.0
  0
MTEXT
  5
B2
330
17
100
AcDbEntity
  8
KONEC-Obrys
100
AcDbMText
 10
1930.0
 20
-1450.0
 30
0.0
 40
50.0
 71
6
  1
Wykonac 2 [szt.]
  7
KONEC-Tekst
  0
LWPOLYLINE
  5
B3
330
17
100
AcDbEntity
  8
KONEC-Obrys
100
AcDbPolyline
 90
4
 70
1
 10
-750.0
 20
-1500.0
 10
-550.0
 20
-1500.0
 10
-550.0
 20
-1600.0
 10
-750.0
 20
-1600.0
  0
MTEXT
  5
B4
330
17
100
AcDbEntity
  8
KONEC-Obrys
100
AcDbMText
 10
-650.0
 20
-1550.0
 30
0.0
 40
50.0
 71
5
  1
1
  7
KONEC-Tekst
  0
LWPOLYLINE
  5
B5
330
17
100
AcDbEntity
  8
KONEC-Obrys
100
AcDbPolyline
 90
4
 70
1
 10
-550.0
 20
-1500.0
 10
-250.0
 20
-1500.0
 10
-250.0
 20
-1600.0
 10
-550.0
 20
-1600.0
  0
MTEXT
  5
B6
330
17
100
AcDbEntity
  8
KONEC-Obrys
100
AcDbMText
 10
-400.0
 20
-1550.0
 30
0.0
 40
50.0
 71
5
  1
%%c 16
  7
KONEC-Tekst
  0
LWPOLYLINE
  5
B7
330
17
100
AcDbEntity
  8
KONEC-Obrys
100
AcDbPolyline
 90
4
 70
1
 10
-250.0
 20
-1500.0
 10
50.0
 20
-1500.0
 10
50.0
 20
-1600.0
 10
-250.0
 20
-1600.0
  0
MTEXT
  5
B8
330
17
100
AcDbEntity
  8
KONEC-Obrys
100
AcDbMText
 10
-100.0
 20
-1550.0
 30
0.0
 40
50.0
 71
5
  1
4703
  7
KONEC-Tekst
  0
LWPOLYLINE
  5
B9
330
17
100
AcDbEntity
  8
KONEC-Obrys
100
AcDbPolyline
 90
4
 70
1
 10
50.0
 20
-1500.0
 10
350.0
 20
-1500.0
 10
350.0
 20
-1600.0
 10
50.0
 20
-1600.0
  0
MTEXT
  5
BA
330
17
100
AcDbEntity
  8
KONEC-Obrys
100
AcDbMText
 10
200.0
 20
-1550.0
 30
0.0
 40
50.0
 71
5
  1
2
  7
KONEC-Tekst
  0
LWPOLYLINE
  5
BB
330
17
100
AcDbEntity
  8
KONEC-Obrys
100
AcDbPolyline
 90
4
 70
1
 10
350.0
 20
-1500.0
 10
650.0
 20
-1500.0
 10
650.0
 20
-1600.0
 10
350.0
 20
-1600.0
  0
MTEXT
  5
BC
330
17
100
AcDbEntity
  8
KONEC-Obrys
100
AcDbMText
 10
500.0
 20
-1550.0
 30
0.0
 40
50.0
 71
5
  1
4
  7
KONEC-Tekst
  0
LWPOLYLINE
  5
BD
330
17
100
AcDbEntity
  8
KONEC-Obrys
100
AcDbPolyline
 90
4
 70
1
 10
650.0
 20
-1500.0
 10
950.0
 20
-1500.0
 10
950.0
 20
-1600.0
 10
650.0
 20
-1600.0
  0
MTEXT
  5
BE
330
17
100
AcDbEntity
  8
KONEC-Obrys
100
AcDbMText
 10
800.0
 20
-1550.0
 30
0.0
 40
50.0
 71
5
  1
18.81
  7
KONEC-Tekst
  0
LWPOLYLINE
  5
BF
330
17
100
AcDbEntity
  8
KONEC-Obrys
100
AcDbPolyline
 90
4
 70
1
 10
950.0
 20
-1500.0
 10
1250.0
 20
-1500.0
 10
1250.0
 20
-1600.0
 10
950.0
 20
-1600.0
  0
MTEXT
  5
C0
330
17
100
AcDbEntity
  8
KONEC-Obrys
100
AcDbMText
 10
1100.0
 20
-1550.0
 30
0.0
 40
50.0
 71
5
  1
-
  7
KONEC-Tekst
  0
LWPOLYLINE
  5
C1
330
17
100
AcDbEntity
  8
KONEC-Obrys
100
AcDbPolyline
 90
4
 70
1
 10
1250.0
 20
-1500.0
 10
1550.0
 20
-1500.0
 10
1550.0
 20
-1600.0
 10
1250.0
 20
-1600.0
  0
MTEXT
  5
C2
330
17
100
AcDbEntity
  8
KONEC-Obrys
100
AcDbMText
 10
1400.0
 20
-1550.0
 30
0.0
 40
50.0
 71
5
  1
-
  7
KONEC-Tekst
  0
LWPOLYLINE
  5
C3
330
17
100
AcDbEntity
  8
KONEC-Obrys
100
AcDbPolyline
 90
4
 70
1
 10
1550.0
 20
-1500.0
 10
1950.0
 20
-1500.0
 10
1950.0
 20
-1600.0
 10
1550.0
 20
-1600.0
  0
MTEXT
  5
C4
330
17
100
AcDbEntity
  8
KONEC-Obrys
100
AcDbMText
 10
1750.0
 20
-1550.0
 30
0.0
 40
50.0
 71
5
  1

  7
KONEC-Tekst
  0
LWPOLYLINE
  5
C5
330
17
100
AcDbEntity
  8
KONEC-Obrys
100
AcDbPolyline
 90
4
 70
1
 10
-750.0
 20
-1600.0
 10
-550.0
 20
-1600.0
 10
-550.0
 20
-1700.0
 10
-750.0
 20
-1700.0
  0
MTEXT
  5
C6
330
17
100
AcDbEntity
  8
KONEC-Obrys
100
AcDbMText
 10
-650.0
 20
-1650.0
 30
0.0
 40
50.0
 71
5
  1
2
  7
KONEC-Tekst
  0
LWPOLYLINE
  5
C7
330
17
100
AcDbEntity
  8
KONEC-Obrys
100
AcDbPolyline
 90
4
 70
1
 10
-550.0
 20
-1600.0
 10
-250.0
 20
-1600.0
 10
-250.0
 20
-1700.0
 10
-550.0
 20
-1700.0
  0
MTEXT
  5
C8
330
17
100
AcDbEntity
  8
KONEC-Obrys
100
AcDbMText
 10
-400.0
 20
-1650.0
 30
0.0
 40
50.0
 71
5
  1
%%c 12
  7
KONEC-Tekst
  0
LWPOLYLINE
  5
C9
330
17
100
AcDbEntity
  8
KONEC-Obrys
100
AcDbPolyline
 90
4
 70
1
 10
-250.0
 20
-1600.0
 10
50.0
 20
-1600.0
 10
50.0
 20
-1700.0
 10
-250.0
 20
-1700.0
  0
MTEXT
  5
CA
330
17
100
AcDbEntity
  8
KONEC-Obrys
100
AcDbMText
 10
-100.0
 20
-1650.0
 30
0.0
 40
50.0
 71
5
  1
3895
  7
KONEC-Tekst
  0
LWPOLYLINE
  5
CB
330
17
100
AcDbEntity
  8
KONEC-Obrys
100
AcDbPolyline
 90
4
 70
1
 10
50.0
 20
-1600.0
 10
350.0
 20
-1600.0
 10
350.0
 20
-1700.0
 10
50.0
 20
-1700.0
  0
MTEXT
  5
CC
330
17
100
AcDbEntity
  8
KONEC-Obrys
100
AcDbMText
 10
200.0
 20
-1650.0
 30
0.0
 40
50.0
 71
5
  1
3
  7
KONEC-Tekst
  0
LWPOLYLINE
  5
CD
330
17
100
AcDbEntity
  8
KONEC-Obrys
100
AcDbPolyline
 90
4
 70
1
 10
350.0
 20
-1600.0
 10
650.0
 20
-1600.0
 10
650.0
 20
-1700.0
 10
350.0
 20
-1700.0
  0
MTEXT
  5
CE
330
17
100
AcDbEntity
  8
KONEC-Obrys
100
AcDbMText
 10
500.0
 20
-1650.0
 30
0.0
 40
50.0
 71
5
  1
6
  7
KONEC-Tekst
  0
LWPOLYLINE
  5
CF
330
17
100
AcDbEntity
  8
KONEC-Obrys
100
AcDbPolyline
 90
4
 70
1
 10
650.0
 20
-1600.0
 10
950.0
 20
-1600.0
 10
950.0
 20
-1700.0
 10
650.0
 20
-1700.0
  0
MTEXT
  5
D0
330
17
100
AcDbEntity
  8
KONEC-Obrys
100
AcDbMText
 10
800.0
 20
-1650.0
 30
0.0
 40
50.0
 71
5
  1
-
  7
KONEC-Tekst
  0
LWPOLYLINE
  5
D1
330
17
100
AcDbEntity
  8
KONEC-Obrys
100
AcDbPolyline
 90
4
 70
1
 10
950.0
 20
-1600.0
 10
1250.0
 20
-1600.0
 10
1250.0
 20
-1700.0
 10
950.0
 20
-1700.0
  0
MTEXT
  5
D2
330
17
100
AcDbEntity
  8
KONEC-Obrys
100
AcDbMText
 10
1100.0
 20
-1650.0
 30
0.0
 40
50.0
 71
5
  1
23.37
  7
KONEC-Tekst
  0
LWPOLYLINE
  5
D3
330
17
100
AcDbEntity
  8
KONEC-Obrys
100
AcDbPolyline
 90
4
 70
1
 10
1250.0
 20
-1600.0
 10
1550.0
 20
-1600.0
 10
1550.0
 20
-1700.0
 10
1250.0
 20
-1700.0
  0
MTEXT
  5
D4
330
17
100
AcDbEntity
  8
KONEC-Obrys
100
AcDbMText
 10
1400.0
 20
-1650.0
 30
0.0
 40
50.0
 71
5
  1
-
  7
KONEC-Tekst
  0
LWPOLYLINE
  5
D5
330
17
100
AcDbEntity
  8
KONEC-Obrys
100
AcDbPolyline
 90
4
 70
1
 10
1550.0
 20
-1600.0
 10
1950.0
 20
-1600.0
 10
1950.0
 20
-1700.0
 10
1550.0
 20
-1700.0
  0
MTEXT
  5
D6
330
17
100
AcDbEntity
  8
KONEC-Obrys
100
AcDbMText
 10
1750.0
 20
-1650.0
 30
0.0
 40
50.0
 71
5
  1

  7
KONEC-Tekst
  0
LWPOLYLINE
  5
D7
330
17
100
AcDbEntity
  8
KONEC-Obrys
100
AcDbPolyline
 90
4
 70
1
 10
-750.0
 20
-1700.0
 10
-550.0
 20
-1700.0
 10
-550.0
 20
-1800.0
 10
-750.0
 20
-1800.0
  0
MTEXT
  5
D8
330
17
100
AcDbEntity
  8
KONEC-Obrys
100
AcDbMText
 10
-650.0
 20
-1750.0
 30
0.0
 40
50.0
 71
5
  1
3
  7
KONEC-Tekst
  0
LWPOLYLINE
  5
D9
330
17
100
AcDbEntity
  8
KONEC-Obrys
100
AcDbPolyline
 90
4
 70
1
 10
-550.0
 20
-1700.0
 10
-250.0
 20
-1700.0
 10
-250.0
 20
-1800.0
 10
-550.0
 20
-1800.0
  0
MTEXT
  5
DA
330
17
100
AcDbEntity
  8
KONEC-Obrys
100
AcDbMText
 10
-400.0
 20
-1750.0
 30
0.0
 40
50.0
 71
5
  1
%%c 8
  7
KONEC-Tekst
  0
LWPOLYLINE
  5
DB
330
17
100
AcDbEntity
  8
KONEC-Obrys
100
AcDbPolyline
 90
4
 70
1
 10
-250.0
 20
-1700.0
 10
50.0
 20
-1700.0
 10
50.0
 20
-1800.0
 10
-250.0
 20
-1800.0
  0
MTEXT
  5
DC
330
17
100
AcDbEntity
  8
KONEC-Obrys
100
AcDbMText
 10
-100.0
 20
-1750.0
 30
0.0
 40
50.0
 71
5
  1
1375
  7
KONEC-Tekst
  0
LWPOLYLINE
  5
DD
330
17
100
AcDbEntity
  8
KONEC-Obrys
100
AcDbPolyline
 90
4
 70
1
 10
50.0
 20
-1700.0
 10
350.0
 20
-1700.0
 10
350.0
 20
-1800.0
 10
50.0
 20
-1800.0
  0
MTEXT
  5
DE
330
17
100
AcDbEntity
  8
KONEC-Obrys
100
AcDbMText
 10
200.0
 20
-1750.0
 30
0.0
 40
50.0
 71
5
  1
20
  7
KONEC-Tekst
  0
LWPOLYLINE
  5
DF
330
17
100
AcDbEntity
  8
KONEC-Obrys
100
AcDbPolyline
 90
4
 70
1
 10
350.0
 20
-1700.0
 10
650.0
 20
-1700.0
 10
650.0
 20
-1800.0
 10
350.0
 20
-1800.0
  0
MTEXT
  5
E0
330
17
100
AcDbEntity
  8
KONEC-Obrys
100
AcDbMText
 10
500.0
 20
-1750.0
 30
0.0
 40
50.0
 71
5
  1
40
  7
KONEC-Tekst
  0
LWPOLYLINE
  5
E1
330
17
100
AcDbEntity
  8
KONEC-Obrys
100
AcDbPolyline
 90
4
 70
1
 10
650.0
 20
-1700.0
 10
950.0
 20
-1700.0
 10
950.0
 20
-1800.0
 10
650.0
 20
-1800.0
  0
MTEXT
  5
E2
330
17
100
AcDbEntity
  8
KONEC-Obrys
100
AcDbMText
 10
800.0
 20
-1750.0
 30
0.0
 40
50.0
 71
5
  1
-
  7
KONEC-Tekst
  0
LWPOLYLINE
  5
E3
330
17
100
AcDbEntity
  8
KONEC-Obrys
100
AcDbPolyline
 90
4
 70
1
 10
950.0
 20
-1700.0
 10
1250.0
 20
-1700.0
 10
1250.0
 20
-1800.0
 10
950.0
 20
-1800.0
  0
MTEXT
  5
E4
330
17
100
AcDbEntity
  8
KONEC-Obrys
100
AcDbMText
 10
1100.0
 20
-1750.0
 30
0.0
 40
50.0
 71
5
  1
-
  7
KONEC-Tekst
  0
LWPOLYLINE
  5
E5
330
17
100
AcDbEntity
  8
KONEC-Obrys
100
AcDbPolyline
 90
4
 70
1
 10
1250.0
 20
-1700.0
 10
1550.0
 20
-1700.0
 10
1550.0
 20
-1800.0
 10
1250.0
 20
-1800.0
  0
MTEXT
  5
E6
330
17
100
AcDbEntity
  8
KONEC-Obrys
100
AcDbMText
 10
1400.0
 20
-1750.0
 30
0.0
 40
50.0
 71
5
  1
55.0
  7
KONEC-Tekst
  0
LWPOLYLINE
  5
E7
330
17
100
AcDbEntity
  8
KONEC-Obrys
100
AcDbPolyline
 90
4
 70
1
 10
1550.0
 20
-1700.0
 10
1950.0
 20
-1700.0
 10
1950.0
 20
-1800.0
 10
1550.0
 20
-1800.0
  0
MTEXT
  5
E8
330
17
100
AcDbEntity
  8
KONEC-Obrys
100
AcDbMText
 10
1750.0
 20
-1750.0
 30
0.0
 40
50.0
 71
5
  1

  7
KONEC-Tekst
  0
LWPOLYLINE
  5
E9
330
17
100
AcDbEntity
  8
KONEC-Obrys
100
AcDbPolyline
 90
4
 70
1
 10
-750.0
 20
-1800.0
 10
650.0
 20
-1800.0
 10
650.0
 20
-1900.0
 10
-750.0
 20
-1900.0
  0
MTEXT
  5
EA
330
17
100
AcDbEntity
  8
KONEC-Obrys
100
AcDbMText
 10
-730.0
 20
-1850.0
 30
0.0
 40
50.0
 71
4
  1
Długość ogólna wg średnic
  7
KONEC-Tekst
  0
LWPOLYLINE
  5
EB
330
17
100
AcDbEntity
  8
KONEC-Obrys
100
AcDbPolyline
 90
4
 70
1
 10
-750.0
 20
-1800.0
 10
650.0
 20
-1800.0
 10
650.0
 20
-1900.0
 10
-750.0
 20
-1900.0
  0
MTEXT
  5
EC
330
17
100
AcDbEntity
  8
KONEC-Obrys
100
AcDbMText
 10
630.0
 20
-1850.0
 30
0.0
 40
50.0
 71
6
  1
[m]
  7
KONEC-Tekst
  0
LWPOLYLINE
  5
ED
330
17
100
AcDbEntity
  8
KONEC-Obrys
100
AcDbPolyline
 90
4
 70
1
 10
650.0
 20
-1800.0
 10
950.0
 20
-1800.0
 10
950.0
 20
-1900.0
 10
650.0
 20
-1900.0
  0
MTEXT
  5
EE
330
17
100
AcDbEntity
  8
KONEC-Obrys
100
AcDbMText
 10
930.0
 20
-1850.0
 30
0.0
 40
50.0
 71
6
  1
18.81
  7
KONEC-Tekst
  0
LWPOLYLINE
  5
EF
330
17
100
AcDbEntity
  8
KONEC-Obrys
100
AcDbPolyline
 90
4
 70
1
 10
950.0
 20
-1800.0
 10
1250.0
 20
-1800.0
 10
1250.0
 20
-1900.0
 10
950.0
 20
-1900.0
  0
MTEXT
  5
F0
330
17
100
AcDbEntity
  8
KONEC-Obrys
100
AcDbMText
 10
1230.0
 20
-1850.0
 30
0.0
 40
50.0
 71
6
  1
23.37
  7
KONEC-Tekst
  0
LWPOLYLINE
  5
F1
330
17
100
AcDbEntity
  8
KONEC-Obrys
100
AcDbPolyline
 90
4
 70
1
 10
1250.0
 20
-1800.0
 10
1550.0
 20
-1800.0
 10
1550.0
 20
-1900.0
 10
1250.0
 20
-1900.0
  0
MTEXT
  5
F2
330
17
100
AcDbEntity
  8
KONEC-Obrys
100
AcDbMText
 10
1530.0
 20
-1850.0
 30
0.0
 40
50.0
 71
6
  1
55.0
  7
KONEC-Tekst
  0
LWPOLYLINE
  5
F3
330
17
100
AcDbEntity
  8
KONEC-Obrys
100
AcDbPolyline
 90
4
 70
1
 10
1550.0
 20
-1800.0
 10
1950.0
 20
-1800.0
 10
1950.0
 20
-1900.0
 10
1550.0
 20
-1900.0
  0
MTEXT
  5
F4
330
17
100
AcDbEntity
  8
KONEC-Obrys
100
AcDbMText
 10
1750.0
 20
-1850.0
 30
0.0
 40
50.0
 71
5
  1

  7
KONEC-Tekst
  0
LWPOLYLINE
  5
F5
330
17
100
AcDbEntity
  8
KONEC-Obrys
100
AcDbPolyline
 90
4
 70
1
 10
-750.0
 20
-1900.0
 10
650.0
 20
-1900.0
 10
650.0
 20
-2000.0
 10
-750.0
 20
-2000.0
  0
MTEXT
  5
F6
330
17
100
AcDbEntity
  8
KONEC-Obrys
100
AcDbMText
 10
-730.0
 20
-1950.0
 30
0.0
 40
50.0
 71
4
  1
Masa 1m pręta
  7
KONEC-Tekst
  0
LWPOLYLINE
  5
F7
330
17
100
AcDbEntity
  8
KONEC-Obrys
100
AcDbPolyline
 90
4
 70
1
 10
-750.0
 20
-1900.0
 10
650.0
 20
-1900.0
 10
650.0
 20
-2000.0
 10
-750.0
 20
-2000.0
  0
MTEXT
  5
F8
330
17
100
AcDbEntity
  8
KONEC-Obrys
100
AcDbMText
 10
630.0
 20
-1950.0
 30
0.0
 40
50.0
 71
6
  1
[kg]
  7
KONEC-Tekst
  0
LWPOLYLINE
  5
F9
330
17
100
AcDbEntity
  8
KONEC-Obrys
100
AcDbPolyline
 90
4
 70
1
 10
650.0
 20
-1900.0
 10
950.0
 20
-1900.0
 10
950.0
 20
-2000.0
 10
650.0
 20
-2000.0
  0
MTEXT
  5
FA
330
17
100
AcDbEntity
  8
KONEC-Obrys
100
AcDbMText
 10
930.0
 20
-1950.0
 30
0.0
 40
50.0
 71
6
  1
1.578
  7
KONEC-Tekst
  0
LWPOLYLINE
  5
FB
330
17
100
AcDbEntity
  8
KONEC-Obrys
100
AcDbPolyline
 90
4
 70
1
 10
950.0
 20
-1900.0
 10
1250.0
 20
-1900.0
 10
1250.0
 20
-2000.0
 10
950.0
 20
-2000.0
  0
MTEXT
  5
FC
330
17
100
AcDbEntity
  8
KONEC-Obrys
100
AcDbMText
 10
1230.0
 20
-1950.0
 30
0.0
 40
50.0
 71
6
  1
0.888
  7
KONEC-Tekst
  0
LWPOLYLINE
  5
FD
330
17
100
AcDbEntity
  8
KONEC-Obrys
100
AcDbPolyline
 90
4
 70
1
 10
1250.0
 20
-1900.0
 10
1550.0
 20
-1900.0
 10
1550.0
 20
-2000.0
 10
1250.0
 20
-2000.0
  0
MTEXT
  5
FE
330
17
100
AcDbEntity
  8
KONEC-Obrys
100
AcDbMText
 10
1530.0
 20
-1950.0
 30
0.0
 40
50.0
 71
6
  1
0.395
  7
KONEC-Tekst
  0
LWPOLYLINE
  5
FF
330
17
100
AcDbEntity
  8
KONEC-Obrys
100
AcDbPolyline
 90
4
 70
1
 10
1550.0
 20
-1900.0
 10
1950.0
 20
-1900.0
 10
1950.0
 20
-2000.0
 10
1550.0
 20
-2000.0
  0
MTEXT
  5
100
330
17
100
AcDbEntity
  8
KONEC-Obrys
100
AcDbMText
 10
1750.0
 20
-1950.0
 30
0.0
 40
50.0
 71
5
  1

  7
KONEC-Tekst
  0
LWPOLYLINE
  5
101
330
17
100
AcDbEntity
  8
KONEC-Obrys
100
AcDbPolyline
 90
4
 70
1
 10
-750.0
 20
-2000.0
 10
650.0
 20
-2000.0
 10
650.0
 20
-2100.0
 10
-750.0
 20
-2100.0
  0
MTEXT
  5
102
330
17
100
AcDbEntity
  8
KONEC-Obrys
100
AcDbMText
 10
-730.0
 20
-2050.0
 30
0.0
 40
50.0
 71
4
  1
Masa ogólna wg średnic
  7
KONEC-Tekst
  0
LWPOLYLINE
  5
103
330
17
100
AcDbEntity
  8
KONEC-Obrys
100
AcDbPolyline
 90
4
 70
1
 10
-750.0
 20
-2000.0
 10
650.0
 20
-2000.0
 10
650.0
 20
-2100.0
 10
-750.0
 20
-2100.0
  0
MTEXT
  5
104
330
17
100
AcDbEntity
  8
KONEC-Obrys
100
AcDbMText
 10
630.0
 20
-2050.0
 30
0.0
 40
50.0
 71
6
  1
[kg]
  7
KONEC-Tekst
  0
LWPOLYLINE
  5
105
330
17
100
AcDbEntity
  8
KONEC-Obrys
100
AcDbPolyline
 90
4
 70
1
 10
650.0
 20
-2000.0
 10
950.0
 20
-2000.0
 10
950.0
 20
-2100.0
 10
650.0
 20
-2100.0
  0
MTEXT
  5
106
330
17
100
AcDbEntity
  8
KONEC-Obrys
100
AcDbMText
 10
930.0
 20
-2050.0
 30
0.0
 40
50.0
 71
6
  1
29.7
  7
KONEC-Tekst
  0
LWPOLYLINE
  5
107
330
17
100
AcDbEntity
  8
KONEC-Obrys
100
AcDbPolyline
 90
4
 70
1
 10
950.0
 20
-2000.0
 10
1250.0
 20
-2000.0
 10
1250.0
 20
-2100.0
 10
950.0
 20
-2100.0
  0
MTEXT
  5
108
330
17
100
AcDbEntity
  8
KONEC-Obrys
100
AcDbMText
 10
1230.0
 20
-2050.0
 30
0.0
 40
50.0
 71
6
  1
20.8
  7
KONEC-Tekst
  0
LWPOLYLINE
  5
109
330
17
100
AcDbEntity
  8
KONEC-Obrys
100
AcDbPolyline
 90
4
 70
1
 10
1250.0
 20
-2000.0
 10
1550.0
 20
-2000.0
 10
1550.0
 20
-2100.0
 10
1250.0
 20
-2100.0
  0
MTEXT
  5
10A
330
17
100
AcDbEntity
  8
KONEC-Obrys
100
AcDbMText
 10
1530.0
 20
-2050.0
 30
0.0
 40
50.0
 71
6
  1
21.7
  7
KONEC-Tekst
  0
LWPOLYLINE
  5
10B
330
17
100
AcDbEntity
  8
KONEC-Obrys
100
AcDbPolyline
 90
4
 70
1
 10
1550.0
 20
-2000.0
 10
1950.0
 20
-2000.0
 10
1950.0
 20
-2100.0
 10
1550.0
 20
-2100.0
  0
MTEXT
  5
10C
330
17
100
AcDbEntity
  8
KONEC-Obrys
100
AcDbMText
 10
1750.0
 20
-2050.0
 30
0.0
 40
50.0
 71
5
  1

  7
KONEC-Tekst
  0
LWPOLYLINE
  5
10D
330
17
100
AcDbEntity
  8
KONEC-Obrys
100
AcDbPolyline
 90
4
 70
1
 10
-750.0
 20
-2100.0
 10
650.0
 20
-2100.0
 10
650.0
 20
-2200.0
 10
-750.0
 20
-2200.0
  0
MTEXT
  5
10E
330
17
100
AcDbEntity
  8
KONEC-Obrys
100
AcDbMText
 10
-730.0
 20
-2150.0
 30
0.0
 40
50.0
 71
4
  1
Masa całkowita
  7
KONEC-Tekst
  0
LWPOLYLINE
  5
10F
330
17
100
AcDbEntity
  8
KONEC-Obrys
100
AcDbPolyline
 90
4
 70
1
 10
-750.0
 20
-2100.0
 10
650.0
 20
-2100.0
 10
650.0
 20
-2200.0
 10
-750.0
 20
-2200.0
  0
MTEXT
  5
110
330
17
100
AcDbEntity
  8
KONEC-Obrys
100
AcDbMText
 10
630.0
 20
-2150.0
 30
0.0
 40
50.0
 71
6
  1
[kg]
  7
KONEC-Tekst
  0
LWPOLYLINE
  5
111
330
17
100
AcDbEntity
  8
KONEC-Obrys
100
AcDbPolyline
 90
4
 70
1
 10
650.0
 20
-2100.0
 10
1550.0
 20
-2100.0
 10
1550.0
 20
-2200.0
 10
650.0
 20
-2200.0
  0
MTEXT
  5
112
330
17
100
AcDbEntity
  8
KONEC-Obrys
100
AcDbMText
 10
1100.0
 20
-2150.0
 30
0.0
 40
50.0
 71
5
  1
72.2
  7
KONEC-Tekst
  0
LWPOLYLINE
  5
113
330
17
100
AcDbEntity
  8
KONEC-Obrys
100
AcDbPolyline
 90
4
 70
1
 10
1550.0
 20
-2100.0
 10
1950.0
 20
-2100.0
 10
1950.0
 20
-2200.0
 10
1550.0
 20
-2200.0
  0
MTEXT
  5
114
330
17
100
AcDbEntity
  8
KONEC-Obrys
100
AcDbMText
 10
1750.0
 20
-2150.0
 30
0.0
 40
50.0
 71
5
  1

  7
KONEC-Tekst
  0
INSERT
  5
120
330
17
100
AcDbEntity
  8
0
100
AcDbBlockReference
 66
1
  2
reinforcement_description
 10
-3027.5
 20
-1246.0
 30
0.0
 41
20.0
 42
20.0
 43
20.0
  0
ATTRIB
  5
121
330
17
100
AcDbEntity
  8
KONEC-Obrys
100
AcDbText
 10
-3307.5
 20
-1146.0
 30
0.0
 40
50.0
  1
1
  7
KONEC-Tekst
 72
1
 11
-3307.5
 21
-1146.0
 31
0.0
100
AcDbAttribute
280
0
  2
NUMBER
 70
0
 74
2
 71
1
 72
0
 11
-3307.5
 21
-1146.0
 31
0.0
  0
ATTRIB
  5
122
330
17
100
AcDbEntity
  8
KONEC-Obrys
100
AcDbText
 10
-3107.5
 20
-1146.0
 30
0.0
 40
50.0
  1
2
  7
KONEC-Tekst
 72
2
 11
-3107.5
 21
-1146.0
 31
0.0
100
AcDbAttribute
280
0
  2
QUANTITY
 70
0
 74
2
 71
1
 72
0
 11
-3107.5
 21
-1146.0
 31
0.0
  0
ATTRIB
  5
123
330
17
100
AcDbEntity
  8
KONEC-Obrys
100
AcDbText
 10
-3027.5
 20
-1146.0
 30
0.0
 40
50.0
  1
16
  7
KONEC-Tekst
 11
-3027.5
 21
-1146.0
 31
0.0
100
AcDbAttribute
280
0
  2
DIAMETER
 70
0
 74
2
 71
1
 72
0
 11
-3027.5
 21
-1146.0
 31
0.0
  0
ATTRIB
  5
124
330
17
100
AcDbEntity
  8
KONEC-Obrys
100
AcDbText
 10
-2847.5
 20
-1146.0
 30
0.0
 40
50.0
  1
4703
  7
KONEC-Tekst
 11
-2847.5
 21
-1146.0
 31
0.0
100
AcDbAttribute
280
0
  2
LENGTH
 70
0
 74
2
 71
1
 72
0
 11
-2847.5
 21
-1146.0
 31
0.0
  0
SEQEND
  5
125
330
17
100
AcDbEntity
  8
0
  0
INSERT
  5
131
330
17
100
AcDbEntity
  8
0
100
AcDbBlockReference
 66
1
  2
reinforcement_description
 10
-3027.5
 20
-1811.0
 30
0.0
 41
20.0
 42
20.0
 43
20.0
  0
ATTRIB
  5
132
330
17
100
AcDbEntity
  8
KONEC-Obrys
100
AcDbText
 10
-3307.5
 20
-1711.0
 30
0.0
 40
50.0
  1
2
  7
KONEC-Tekst
 72
1
 11
-3307.5
 21
-1711.0
 31
0.0
100
AcDbAttribute
280
0
  2
NUMBER
 70
0
 74
2
 71
1
 72
0
 11
-3307.5
 21
-1711.0
 31
0.0
  0
ATTRIB
  5
133
330
17
100
AcDbEntity
  8
KONEC-Obrys
100
AcDbText
 10
-3107.5
 20
-1711.0
 30
0.0
 40
50.0
  1
3
  7
KONEC-Tekst
 72
2
 11
-3107.5
 21
-1711.0
 31
0.0
100
AcDbAttribute
280
0
  2
QUANTITY
 70
0
 74
2
 71
1
 72
0
 11
-3107.5
 21
-1711.0
 31
0.0
  0
ATTRIB
  5
134
330
17
100
AcDbEntity
  8
KONEC-Obrys
100
AcDbText
 10
-3027.5
 20
-1711.0
 30
0.0
 40
50.0
  1
12
  7
KONEC-Tekst
 11
-3027.5
 21
-1711.0
 31
0.0
100
AcDbAttribute
280
0
  2
DIAMETER
 70
0
 74
2
 71
1
 72
0
 11
-3027.5
 21
-1711.0
 31
0.0
  0
ATTRIB
  5
135
330
17
100
AcDbEntity
  8
KONEC-Obrys
100
AcDbText
 10
-2847.5
 20
-1711.0
 30
0.0
 40
50.0
  1
3895
  7
KONEC-Tekst
 11
-2847.5
 21
-1711.0
 31
0.0
100
AcDbAttribute
280
0
  2
LENGTH
 70
0
 74
2
 71
1
 72
0
 11
-2847.5
 21
-1711.0
 31
0.0
  0
SEQEND
  5
136
330
17
100
AcDbEntity
  8
0
  0
INSERT
  5
142
330
17
100
AcDbEntity
  8
0
100
AcDbBlockReference
 66
1
  2
reinforcement_description
 10
715.0
 20
-450.0
 30
0.0
 41
20.0
 42
20.0
 43
20.0
  0
ATTRIB
  5
143
330
17
100
AcDbEntity
  8
KONEC-Obrys
100
AcDbText
 10
435.0
 20
-350.0
 30
0.0
 40
50.0
  1
3
  7
KONEC-Tekst
 72
1
 11
435.0
 21
-350.0
 31
0.0
100
AcDbAttribute
280
0
  2
NUMBER
 70
0
 74
2
 71
1
 72
0
 11
435.0
 21
-350.0
 31
0.0
  0
ATTRIB
  5
144
330
17
100
AcDbEntity
  8
KONEC-Obrys
100
AcDbText
 10
635.0
 20
-350.0
 30
0.0
 40
50.0
  1
20
  7
KONEC-Tekst
 72
2
 11
635.0
 21
-350.0
 31
0.0
100
AcDbAttribute
280
0
  2
QUANTITY
 70
0
 74
2
 71
1
 72
0
 11
635.0
 21
-350.0
 31
0.0
  0
ATTRIB
  5
145
330
17
100
AcDbEntity
  8
KONEC-Obrys
100
AcDbText
 10
715.0
 20
-350.0
 30
0.0
 40
50.0
  1
8
  7
KONEC-Tekst
 11
715.0
 21
-350.0
 31
0.0
100
AcDbAttribute
280
0
  2
DIAMETER
 70
0
 74
2
 71
1
 72
0
 11
715.0
 21
-350.0
 31
0.0
  0
ATTRIB
  5
146
330
17
100
AcDbEntity
  8
KONEC-Obrys
100
AcDbText
 10
895.0
 20
-350.0
 30
0.0
 40
50.0
  1
1375
  7
KONEC-Tekst
 11
895.0
 21
-350.0
 31
0.0
100
AcDbAttribute
280
0
  2
LENGTH
 70
0
 74
2
 71
1
 72
0
 11
895.0
 21
-350.0
 31
0.0
  0
SEQEND
  5
147
330
17
100
AcDbEntity
  8
0
  0
ENDSEC
  0
SECTION
  2
OBJECTS
  0
DICTIONARY
  5
A
330
0
100
AcDbDictionary
281
1
  3
ACAD_COLOR
350
B
  3
ACAD_GROUP
350
C
  3
ACAD_LAYOUT
350
D
  3
ACAD_MATERIAL
350
E
  3
ACAD_MLEADERSTYLE
350
F
  3
ACAD_MLINESTYLE
350
10
  3
ACAD_PLOTSETTINGS
350
11
  3
ACAD_PLOTSTYLENAME
350
12
  3
ACAD_SCALELIST
350
14
  3
ACAD_TABLESTYLE
350
15
  3
ACAD_VISUALSTYLE
350
16
  3
EZDXF_META
350
2D
  0
DICTIONARY
  5
B
330
A
100
AcDbDictionary
281
1
  0
DICTIONARY
  5
C
330
A
100
AcDbDictionary
281
1
  0
DICTIONARY
  5
D
330
A
100
AcDbDictionary
281
1
  3
Model
350
1A
  3
Layout1
350
1E
  3
BŻ-3
350
68
  0
DICTIONARY
  5
E
330
A
100
AcDbDictionary
281
1
  3
ByBlock
350
1F
  3
ByLayer
350
20
  3
Global
350
21
  0
DICTIONARY
  5
F
330
A
100
AcDbDictionary
281
1
  3
Standard
350
2C
  0
DICTIONARY
  5
10
330
A
100
AcDbDictionary
281
1
  3
Standard
350
22
  0
DICTIONARY
  5
11
330
A
100
AcDbDictionary
281
1
  0
ACDBDICTIONARYWDFLT
  5
12
330
A
100
AcDbDictionary
281
1
  3
Normal
350
13
100
AcDbDictionaryWithDefault
340
13
  0
ACDBPLACEHOLDER
  5
13
330
12
  0
DICTIONARY
  5
14
330
A
100
AcDbDictionary
281
1
  0
DICTIONARY
  5
15
330
A
100
AcDbDictionary
281
1
  0
DICTIONARY
  5
16
330
A
100
AcDbDictionary
281
1
  0
LAYOUT
  5
1A
330
D
100
AcDbPlotSettings
  1

  2
Adobe PDF
  4
A3
  6

 40
7.5
 41
20.0
 42
7.5
 43
20.0
 44
420.0
 45
297.0
 46
0.0
 47
0.0
 48
0.0
 49
0.0
140
0.0
141
0.0
142
1.0
143
1.0
 70
1024
 72
1
 73
1
 74
5
  7

 75
16
 76
0
 77
2
 78
300
147
1.0
148
0.0
149
0.0
100
AcDbLayout
  1
Model
 70
1
 71
0
 10
0.0
 20
0.0
 11
420.0
 21
297.0
 12
0.0
 22
0.0
 32
0.0
 14
1e+20
 24
1e+20
 34
1e+20
 15
-1e+20
 25
-1e+20
 35
-1e+20
146
0.0
 13
0.0
 23
0.0
 33
0.0
 16
1.0
 26
0.0
 36
0.0
 17
0.0
 27
1.0
 37
0.0
 76
1
330
17
  0
LAYOUT
  5
1E
330
D
100
AcDbPlotSettings
  1

  2
Adobe PDF
  4
A3
  6

 40
7.5
 41
20.0
 42
7.5
 43
20.0
 44
420.0
 45
297.0
 46
0.0
 47
0.0
 48
0.0
 49
0.0
140
0.0
141
0.0
142
1.0
143
1.0
 70
0
 72
1
 73
1
 74
5
  7

 75
16
 76
0
 77
2
 78
300
147
1.0
148
0.0
149
0.0
100
AcDbLayout
  1
Layout1
 70
1
 71
1
 10
0.0
 20
0.0
 11
420.0
 21
297.0
 12
0.0
 22
0.0
 32
0.0
 14
1e+20
 24
1e+20
 34
1e+20
 15
-1e+20
 25
-1e+20
 35
-1e+20
146
0.0
 13
0.0
 23
0.0
 33
0.0
 16
1.0
 26
0.0
 36
0.0
 17
0.0
 27
1.0
 37
0.0
 76
1
330
1B
  0
MATERIAL
  5
1F
102
{ACAD_REACTORS
330
E
102
}
330
E
100
AcDbMaterial
  1
ByBlock
  2

 70
0
 40
1.0
 71
1
 41
1.0
 91
-1023410177
 42
1.0
 72
1
  3

 73
1
 74
1
 75
1
 44
0.5
 73
0
 45
1.0
 46
1.0
 77
1
  4

 78
1
 79
1
170
1
 48
1.0
171
1
  6

172
1
173
1
174
1
140
1.0
141
1.0
175
1
  7

176
1
177
1
178
1
143
1.0
179
1
  8

270
1
271
1
272
1
145
1.0
146
1.0
273
1
  9

274
1
275
1
276
1
 42
1.0
 72
1
  3

 73
1
 74
1
 75
1
 94
63
  0
MATERIAL
  5
20
102
{ACAD_REACTORS
330
E
102
}
330
E
100
AcDbMaterial
  1
ByLayer
  2

 70
0
 40
1.0
 71
1
 41
1.0
 91
-1023410177
 42
1.0
 72
1
  3

 73
1
 74
1
 75
1
 44
0.5
 73
0
 45
1.0
 46
1.0
 77
1
  4

 78
1
 79
1
170
1
 48
1.0
171
1
  6

172
1
173
1
174
1
140
1.0
141
1.0
175
1
  7

176
1
177
1
178
1
143
1.0
179
1
  8

270
1
271
1
272
1
145
1.0
146
1.0
273
1
  9

274
1
275
1
276
1
 42
1.0
 72
1
  3

 73
1
 74
1
 75
1
 94
63
  0
MATERIAL
  5
21
102
{ACAD_REACTORS
330
E
102
}
330
E
100
AcDbMaterial
  1
Global
  2

 70
0
 40
1.0
 71
1
 41
1.0
 91
-1023410177
 42
1.0
 72
1
  3

 73
1
 74
1
 75
1
 44
0.5
 73
0
 45
1.0
 46
1.0
 77
1
  4

 78
1
 79
1
170
1
 48
1.0
171
1
  6

172
1
173
1
174
1
140
1.0
141
1.0
175
1
  7

176
1
177
1
178
1
143
1.0
179
1
  8

270
1
271
1
272
1
145
1.0
146
1.0
273
1
  9

274
1
275
1
276
1
 42
1.0
 72
1
  3

 73
1
 74
1
 75
1
 94
63
  0
MLINESTYLE
  5
22
102
{ACAD_REACTORS
330
10
102
}
330
10
100
AcDbMlineStyle
  2
Standard
 70
0
  3

 62
256
 51
90.0
 52
90.0
 71
2
 49
0.5
 62
256
  6
BYLAYER
 49
-0.5
 62
256
  6
BYLAYER
  0
MLEADERSTYLE
  5
2C
102
{ACAD_REACTORS
330
F
102
}
330
F
100
AcDbMLeaderStyle
179
2
170
2
171
1
172
0
 90
2
 40
0.0
 41
0.0
173
1
 91
-1056964608
 92
-2
290
1
 42
2.0
291
1
 43
8.0
  3
Standard
 44
4.0
300

342
29
174
1
175
1
176
0
178
1
 93
-1056964608
 45
4.0
292
0
297
0
 46
4.0
 94
-1056964608
 47
1.0
 49
1.0
140
1.0
294
1
141
0.0
177
0
142
1.0
295
0
296
0
143
3.75
271
0
272
9
273
9
  0
DICTIONARY
  5
2D
330
A
100
AcDbDictionary
280
1
281
1
  3
CREATED_BY_EZDXF
350
2E
  3
WRITTEN_BY_EZDXF
350
14A
  0
DICTIONARYVAR
  5
2E
330
2D
100
DictionaryVariables
280
0
  1
0.17.2 @ 2022-02-21T12:16:21.763379+00:00
  0
LAYOUT
  5
68
330
D
100
AcDbPlotSettings
  1

  2
DWG to PDF.pc3
  4
ezdxf_(420.00_x_297.00_MM)
  6

 40
0.5
 41
0.5
 42
0.5
 43
0.5
 44
420.0
 45
297.0
 46
0.0
 47
0.0
 48
0.0
 49
0.0
140
0.0
141
0.0
142
1.0
143
20.0
 70
0
 72
1
 73
0
 74
5
  7

 75
16
 76
0
 77
2
 78
300
147
1.0
148
0.0
149
0.0
100
AcDbLayout
  1
BŻ-3
 70
1
 71
3
 10
-0.5
 20
-0.5
 11
419.5
 21
296.5
 12
0.0
 22
0.0
 32
0.0
 14
1e+20
 24
1e+20
 34
1e+20
 15
-1e+20
 25
-1e+20
 35
-1e+20
146
0.0
 13
0.0
 23
0.0
 33
0.0
 16
1.0
 26
0.0
 36
0.0
 17
0.0
 27
1.0
 37
0.0
 76
1
330
65
331
69
  0
DICTIONARYVAR
  5
14A
330
2D
100
DictionaryVariables
280
0
  1
0.17.2 @ 2022-02-21T12:16:21.785378+00:00
  0
ENDSEC
  0
EOF
